<mxfile host="app.diagrams.net" modified="2023-03-17T12:53:54.192Z" agent="5.0 (Windows NT 10.0; Win64; x64) AppleWebKit/537.36 (KHTML, like Gecko) Chrome/110.0.0.0 Safari/537.36" etag="CbU70srG817GDku4kM0M" version="21.0.6" type="github">
  <diagram name="PÃ¡gina-1" id="U4IYYidcnh42CIcxZhZY">
    <mxGraphModel dx="1050" dy="549" grid="1" gridSize="10" guides="1" tooltips="1" connect="1" arrows="1" fold="1" page="1" pageScale="1" pageWidth="827" pageHeight="1169" math="0" shadow="0">
      <root>
        <mxCell id="0" />
        <mxCell id="1" parent="0" />
        <mxCell id="VALxzCZvtoURqA-u829n-2" value="" style="rounded=0;whiteSpace=wrap;html=1;" vertex="1" parent="1">
          <mxGeometry y="5" width="720" height="540" as="geometry" />
        </mxCell>
        <mxCell id="VALxzCZvtoURqA-u829n-15" value="&lt;p style=&quot;line-height: 110%;&quot;&gt;&lt;/p&gt;&lt;div style=&quot;text-align: left; line-height: 150%;&quot;&gt;&lt;br&gt;&lt;/div&gt;&lt;p&gt;&lt;/p&gt;" style="rounded=0;whiteSpace=wrap;html=1;fillColor=#d5e8d4;strokeColor=#82b366;align=center;" vertex="1" parent="1">
          <mxGeometry width="720" height="90" as="geometry" />
        </mxCell>
        <mxCell id="VALxzCZvtoURqA-u829n-16" value="" style="shape=image;html=1;verticalAlign=top;verticalLabelPosition=bottom;labelBackgroundColor=#ffffff;imageAspect=0;aspect=fixed;image=https://cdn1.iconfinder.com/data/icons/ui-essential-17/32/UI_Essential_Outline_1_essential-app-ui-avatar-profile-user-account-128.png" vertex="1" parent="1">
          <mxGeometry x="10" y="6" width="78" height="78" as="geometry" />
        </mxCell>
        <mxCell id="VALxzCZvtoURqA-u829n-17" value="" style="shape=image;verticalLabelPosition=bottom;labelBackgroundColor=default;verticalAlign=top;aspect=fixed;imageAspect=0;image=data:image/png,iVBORw0KGgoAAAANSUhEUgAAAfQAAAH0CAYAAADL1t+KAAAABGdBTUEAALGPC/xhBQAACklpQ0NQc1JHQiBJRUM2MTk2Ni0yLjEAAEiJnVN3WJP3Fj7f92UPVkLY8LGXbIEAIiOsCMgQWaIQkgBhhBASQMWFiApWFBURnEhVxILVCkidiOKgKLhnQYqIWotVXDjuH9yntX167+3t+9f7vOec5/zOec8PgBESJpHmomoAOVKFPDrYH49PSMTJvYACFUjgBCAQ5svCZwXFAADwA3l4fnSwP/wBr28AAgBw1S4kEsfh/4O6UCZXACCRAOAiEucLAZBSAMguVMgUAMgYALBTs2QKAJQAAGx5fEIiAKoNAOz0ST4FANipk9wXANiiHKkIAI0BAJkoRyQCQLsAYFWBUiwCwMIAoKxAIi4EwK4BgFm2MkcCgL0FAHaOWJAPQGAAgJlCLMwAIDgCAEMeE80DIEwDoDDSv+CpX3CFuEgBAMDLlc2XS9IzFLiV0Bp38vDg4iHiwmyxQmEXKRBmCeQinJebIxNI5wNMzgwAABr50cH+OD+Q5+bk4eZm52zv9MWi/mvwbyI+IfHf/ryMAgQAEE7P79pf5eXWA3DHAbB1v2upWwDaVgBo3/ldM9sJoFoK0Hr5i3k4/EAenqFQyDwdHAoLC+0lYqG9MOOLPv8z4W/gi372/EAe/tt68ABxmkCZrcCjg/1xYW52rlKO58sEQjFu9+cj/seFf/2OKdHiNLFcLBWK8ViJuFAiTcd5uVKRRCHJleIS6X8y8R+W/QmTdw0ArIZPwE62B7XLbMB+7gECiw5Y0nYAQH7zLYwaC5EAEGc0Mnn3AACTv/mPQCsBAM2XpOMAALzoGFyolBdMxggAAESggSqwQQcMwRSswA6cwR28wBcCYQZEQAwkwDwQQgbkgBwKoRiWQRlUwDrYBLWwAxqgEZrhELTBMTgN5+ASXIHrcBcGYBiewhi8hgkEQcgIE2EhOogRYo7YIs4IF5mOBCJhSDSSgKQg6YgUUSLFyHKkAqlCapFdSCPyLXIUOY1cQPqQ28ggMor8irxHMZSBslED1AJ1QLmoHxqKxqBz0XQ0D12AlqJr0Rq0Hj2AtqKn0UvodXQAfYqOY4DRMQ5mjNlhXIyHRWCJWBomxxZj5Vg1Vo81Yx1YN3YVG8CeYe8IJAKLgBPsCF6EEMJsgpCQR1hMWEOoJewjtBK6CFcJg4Qxwicik6hPtCV6EvnEeGI6sZBYRqwm7iEeIZ4lXicOE1+TSCQOyZLkTgohJZAySQtJa0jbSC2kU6Q+0hBpnEwm65Btyd7kCLKArCCXkbeQD5BPkvvJw+S3FDrFiOJMCaIkUqSUEko1ZT/lBKWfMkKZoKpRzame1AiqiDqfWkltoHZQL1OHqRM0dZolzZsWQ8ukLaPV0JppZ2n3aC/pdLoJ3YMeRZfQl9Jr6Afp5+mD9HcMDYYNg8dIYigZaxl7GacYtxkvmUymBdOXmchUMNcyG5lnmA+Yb1VYKvYqfBWRyhKVOpVWlX6V56pUVXNVP9V5qgtUq1UPq15WfaZGVbNQ46kJ1Bar1akdVbupNq7OUndSj1DPUV+jvl/9gvpjDbKGhUaghkijVGO3xhmNIRbGMmXxWELWclYD6yxrmE1iW7L57Ex2Bfsbdi97TFNDc6pmrGaRZp3mcc0BDsax4PA52ZxKziHODc57LQMtPy2x1mqtZq1+rTfaetq+2mLtcu0W7eva73VwnUCdLJ31Om0693UJuja6UbqFutt1z+o+02PreekJ9cr1Dund0Uf1bfSj9Rfq79bv0R83MDQINpAZbDE4Y/DMkGPoa5hpuNHwhOGoEctoupHEaKPRSaMnuCbuh2fjNXgXPmasbxxirDTeZdxrPGFiaTLbpMSkxeS+Kc2Ua5pmutG003TMzMgs3KzYrMnsjjnVnGueYb7ZvNv8jYWlRZzFSos2i8eW2pZ8ywWWTZb3rJhWPlZ5VvVW16xJ1lzrLOtt1ldsUBtXmwybOpvLtqitm63Edptt3xTiFI8p0in1U27aMez87ArsmuwG7Tn2YfYl9m32zx3MHBId1jt0O3xydHXMdmxwvOuk4TTDqcSpw+lXZxtnoXOd8zUXpkuQyxKXdpcXU22niqdun3rLleUa7rrStdP1o5u7m9yt2W3U3cw9xX2r+00umxvJXcM970H08PdY4nHM452nm6fC85DnL152Xlle+70eT7OcJp7WMG3I28Rb4L3Le2A6Pj1l+s7pAz7GPgKfep+Hvqa+It89viN+1n6Zfgf8nvs7+sv9j/i/4XnyFvFOBWABwQHlAb2BGoGzA2sDHwSZBKUHNQWNBbsGLww+FUIMCQ1ZH3KTb8AX8hv5YzPcZyya0RXKCJ0VWhv6MMwmTB7WEY6GzwjfEH5vpvlM6cy2CIjgR2yIuB9pGZkX+X0UKSoyqi7qUbRTdHF09yzWrORZ+2e9jvGPqYy5O9tqtnJ2Z6xqbFJsY+ybuIC4qriBeIf4RfGXEnQTJAntieTE2MQ9ieNzAudsmjOc5JpUlnRjruXcorkX5unOy553PFk1WZB8OIWYEpeyP+WDIEJQLxhP5aduTR0T8oSbhU9FvqKNolGxt7hKPJLmnVaV9jjdO31D+miGT0Z1xjMJT1IreZEZkrkj801WRNberM/ZcdktOZSclJyjUg1plrQr1zC3KLdPZisrkw3keeZtyhuTh8r35CP5c/PbFWyFTNGjtFKuUA4WTC+oK3hbGFt4uEi9SFrUM99m/ur5IwuCFny9kLBQuLCz2Lh4WfHgIr9FuxYji1MXdy4xXVK6ZHhp8NJ9y2jLspb9UOJYUlXyannc8o5Sg9KlpUMrglc0lamUycturvRauWMVYZVkVe9ql9VbVn8qF5VfrHCsqK74sEa45uJXTl/VfPV5bdra3kq3yu3rSOuk626s91m/r0q9akHV0IbwDa0b8Y3lG19tSt50oXpq9Y7NtM3KzQM1YTXtW8y2rNvyoTaj9nqdf13LVv2tq7e+2Sba1r/dd3vzDoMdFTve75TsvLUreFdrvUV99W7S7oLdjxpiG7q/5n7duEd3T8Wej3ulewf2Re/ranRvbNyvv7+yCW1SNo0eSDpw5ZuAb9qb7Zp3tXBaKg7CQeXBJ9+mfHvjUOihzsPcw83fmX+39QjrSHkr0jq/dawto22gPaG97+iMo50dXh1Hvrf/fu8x42N1xzWPV56gnSg98fnkgpPjp2Snnp1OPz3Umdx590z8mWtdUV29Z0PPnj8XdO5Mt1/3yfPe549d8Lxw9CL3Ytslt0utPa49R35w/eFIr1tv62X3y+1XPK509E3rO9Hv03/6asDVc9f41y5dn3m978bsG7duJt0cuCW69fh29u0XdwruTNxdeo94r/y+2v3qB/oP6n+0/rFlwG3g+GDAYM/DWQ/vDgmHnv6U/9OH4dJHzEfVI0YjjY+dHx8bDRq98mTOk+GnsqcTz8p+Vv9563Or59/94vtLz1j82PAL+YvPv655qfNy76uprzrHI8cfvM55PfGm/K3O233vuO+638e9H5ko/ED+UPPR+mPHp9BP9z7nfP78L/eE8/stRzjPAAAAIGNIUk0AAHomAACAhAAA+gAAAIDoAAB1MAAA6mAAADqYAAAXcJy6UTwAAAAJcEhZcwAADsQAAA7EAZUrDhsAAM/ySURBVHic7N11nFRVGwfw363p2e4OurtMBGkslBAsVATFRkUxsF4TbJQwsBVMwiRMuhs2gO3enY5773n/mF0kZpfaYni+72c+vrB3Zs4ddvd3z7nnPIdjjIEQQggh5za+qRtACCGEkLNHgU4IIYQEAAp0QgghJABQoBNCCCEBgAKdEEIICQAU6IQQQkgAoEAnhBBCAgAFOiGEEBIAKNAJIYSQAECBTgghhAQACnRCCCEkAFCgE0IIIQGAAp0QQggJABTohBBCSACgQCeEEEICAAU6IYQQEgAo0AkhhJAAQIFOCCGEBAAKdEIIISQAUKATQgghAYACnRBCCAkAFOiEEEJIAKBAJ4QQQgIABTohhBASACjQCSGEkABAgU4IIYQEAAp0QgghJABQoBNCCCEBgAKdEEIICQAU6IQQQkgAoEAnhBBCAgAFOiGEEBIAKNAJIYSQAECBTgghhAQACnRCCCEkAFCgE0IIIQGAAp0QQggJABTohBBCSACgQCeEEEICAAU6IYQQEgAo0AkhhJAAQIFOCCGEBAAKdEIIISQAUKATQgghAYACnRBCCAkAFOiEEEJIAKBAJ4QQQgIABTohhBASACjQCSGEkABAgU4IIYQEAAp0QgghJABQoBNCCCEBgAKdEEIICQAU6IQQQkgAoEAnhBBCAgAFOiGEEBIAKNAJIYSQAECBTgghhAQACnRCCCEkAFCgE0IIIQGAAp0QQggJABTohBBCSACgQCeEEEICAAU6IYQQEgAo0AkhhJAAQIFOCCGEBAAKdEIIISQAUKATQgghAYACnRBCCAkAFOiEEEJIAKBAJ4QQQgIABTohhBASACjQCSGEkABAgU4IIYQEAAp0QgghJABQoBNCCCEBgAKdEEIICQAU6IQQQkgAoEAnhBBCAgAFOiGEEBIAKNAJIYSQAECBTgghhAQACnRCCCEkAFCgE0IIIQGAAp0QQggJABTohBBCSACgQCeEEEICAAU6IYQQEgAo0AkhhJAAQIFOCCGEBAAKdEIIISQAUKATQgghAYACnRBCCAkAFOiEEEJIAKBAJ4QQQgIABTohhBASACjQCSGEkABAgU4IIYQEAAp0QgghJABQoBNCCCEBgAKdEEIICQAU6IQQQkgAoEAnhBBCAgAFOiGEEBIAKNAJIYSQAECBTgghhAQACnRCCCEkAFCgE0IIIQGAAp0QQggJABTohBBCSACgQCeEEEICAAU6IYQQEgAo0AkhhJAAQIFOCCGEBACxqRtA6ubYu7NhXpgxMEUBYwwcx4GXNGBMAVMZOACCXg+mKFDcbhiDg/D7ytWIMBnRsV1bHM7Oht5kgikoGG6HHeA5SFodFEWBx+GA4nRC0GqgyjLAcafUHJ7n4ZUVWCwW6PV6uDwexCckICgm5kh7zxsmE1BWJo65/6GvK+32kL3791cVlZSqOp3u1D7Mc5BXlqHTaHSiKCZER0SoM+6+6702nTrNrSwpYXxt30OMQWUMRpMJHo8X7ooyrN28GXq9HvExMbDZ7VBUFV1atUBFRSVWbtiIYf36YG9RKWJDgvDTn3/DHGTGU5Nuw1PvzoNOFJASF4/1u3fjkq6dER4Rgb+3bENKRBiCg4Px2c+/YeKVI9C9XVt8suxnrNiwCZNGXYWEsBCs3ZcBa1UlvLKMa/tfivyqSjhlFTNmvY7rrxyJxybehJKCAohGI+554WWs371X89YD94Y+/Pa7CRNHDg8uKC2N2pJ9MKl/vz7BGdu2mbILioxldrvklRXOYrVqKioqdbzAM8YYx/O8GhYW5goyGr1mvVaONps93Xt0t/y7fVepBFY0eujgwg279hQlmPS5Mz78tOqXd9+SL+7XGzn79uGe19+GLCt4/8nHoNEboDcaoW3dvlH/rUnDoUAnzZJBq0WV3Y49GzZB4IVTvS4ICOaQEOTl5kZ9vWTp1Uf/vdvtbqomNQqH3Y74mOici7t3fSGIx+edW6UxxEUBinLiwTUXeCHBAANefWUWVFWF2RwEWfY2SntZdRs0kgSzyQQNBwgCj9SEeFS4XMgtyY9VVDVx9/79EU+8+U6XnJycxMz8grZZObkJxeXl5lH3PRjilWXNfTt2HHnNX3/7/ZTe22KxHPPnb1f9ceT/f//LrxAFAVqNxiErSuU9Tz9b3CYtbV9SdOSuwsKidRHh4XleWd4VFRcL8EI9fBKkuaBAJ81SRHAQNh3OxVMffoJgowk8f/7cHdJptbDZbWGiKEKW5aZuTqPo1anTb+NHDHstJCzspw4t0mGprADKKmDzuMFU9ZhjVUWByWSCYDZj7+ZtWLNxI1Zv3oqLunaBJAgNFugqYxAEAUFGI8KCgxESFITE2FjoNSLyCotaFRTktcsrLG7z+99ruu04kNHuUEFBK4/HI+07cMDv69kb8N9WVhTITqcBgGHb3n1x2/bu61LzNZ1Wi4v37st45bFHRrdKS93SYVBcg7WDNC4KdNIsKaoKgecRbDLBbDCC58+fLrpOpwOYqnDnwbBE57ZtNt18xfDne3To8J1Wp8WK9ZtgMugRatADfv7NGWMIDguDpcqCooOHsHnHDuSVlCIhOhqiIECt51szKmPQa7WICA1BVFgYwoKDUWW3h+3Jyup+KCen84zXXu+dX1jUaV/2wVaKv5GEZsjldiMrJ6fFwi+/Gn3XTRO2dGjqBpF6Q4FOmi2O4yDwPASeP68CveacA1mHli3zh1568ZPDLr7w/WizGbuysqBUX8D4u2fOmG9uR1BoKBTZi7cWfgKtKKJP544oq7LgUGFRvbSLMQYGBqNeh+S4OCQVFMLp8Yg7D2ResvtAxoX3vfBSn8P5hRfmFxeb6uUNm9D+nNzUz39chkG3TGrqppB6QoFOCGk0JqPRMeSiC55/6YH7XtfqdI4Va9fBYbH6RmQkye9zVFWFTqeDNjgIe3fsxGc/LEFhaRn6desKnueP3Ms+G4wxmI1GJMXGIquwAA63J+brn38ZtHLt+oHb9+67rLyyMv6s36SZcbjcLUYNHdzUzSD1iAKdENIoJl57zUdTJ4x/9GBubmGFxQJ7cQkURalz9EVVFASHhUH1eLB5wyas3bgRBaXlCA8JBs9xZxXmiqoi2GyCPj0N0RERyMvPTz2UXzBqxfoNg+YUl1xcabFoz/jFzwHllqquLROTggBYTnowOSdQoBNCGlTfrl3+njLmukdGDb78X6fbg5/++BMRoSGoa44AYwzgOATFRCMv+yBWrP4TLllGWEgIQoODzijIGWPgeQ5GgwEp8XFIjI1BXmFxq5ef/d+1C39Ycu3uAxldz+Y8zzV2m50vLC5q0wZY39RtIfWDAp0Q0iBio6OLRw0dPOP2a65aEGkyYtv+AwgyGiGKAjgAtUWybzY5D+h1KMvNw8JFi1FcUoqhl1wMi81WXTvh1NrA4AtyrUZCdEQ44iKjsLtgV+rcrxYP+nvT5pu27tnbt55O95zDAHz+869tL73pVgr0AEGBTgipdyMuvfjtVx6b/lhpldV6OD8fVoMeok5/8l45AK1WC71Oj4x9+/HNkmUQeB5R4eFQVPWUe+Y1x0WEhKBVSgr2HMgQ92QdvPLnP/8evWb7jtFWm/3sTzIArN21J7Sp20DqDwU6IaTetEhJXn/7qKsf7Nepw9+SICLj8GEE6zQnrSPAAIiCCJfbBb3AQxQE7D2QAU4UfUWGrNZTen9VVSEKAhJjY2F32LE7I7PLI7PfGPf7P2vGZebkJNbDKQaUob17xjR1G0j9oUAnhNSLGXdNfrh/796vlBYVISe/AFpzMASeR219co7jICsKeJ6HAA46vR5psTHIzc1FTOdOEAQBGkk6pbXlsqLAbDAgPi4OJeXlWLV23ehf//l3wh/r1o+s37MMLB9+/2PqS/ObuhWkvlCgE0LOSt8uXVbOmfn4va2Sk3b++OdfKCguQXRY3ZPeBJ6H1emG2aBHhdWK8vJyqJIIs8mEqooKqCo7ea+e+e63B5tNSI2PR0lVVdCurOw7v/t95Y05+flt6/s8A1FcRHhwU7eB1B8KdELIGRtxWf8Xn5065dEunTti/YZNcDhdvgltdVBVFS6PB3ERYVC8buSXlCKnqATRcbHweLynVOZXVhTERIShTVoK/ti8OWXdtm33rFiz7ka32x1eX+d2PlBVlQI9gFCgE0JOW2xUVM6LDz94R3JszE+H8/IQGxkBnufr7JVzHAeO52HQ6ZBfWork6GhoRQleRYFWI510Qz3GGBhjCDGbERESjE179nVZ9MuvD370/ZLxqqKcP6UE61FxlUXf1G0g9YcCnRByWq4bMuiju64fO6VFegvXin//hYare3hcVVVoNRpwkgReVaERRdidLljtdggC77fU69EYY1BVFbGRkVDCQvHL2vW9f/93zSN/bNh4dZ1PJCcVZjJSoAcQCnRCyCkx6PXW+c88NXnEpRd/vm7rVuzNzq4u1uI/zHmOg8vjhVGjh93pQkFePmJDau6tc5BEoc5laDVfCwsORqjZjB37D/Rd/Nvv05au+uOahji/85HNZvdfb5eckyjQCSEndVmf3ktnPfzAlC7t2uZu3rkLZZVViDUF1Xq8qqpQAcRFhiNYI2H7/gNwOhyIDw/3XQBwXK2FZWqG1iNCQxETEY6i0rIeX/3y2wNrtmwd1yAndx6zu1wU6AGEAp0QUqfH77h92o0jh80KDgnGrv0HoKhqrb1yXxU3DoznUVZWhrToSOg1GqzdvhN6rdb3teqd0/yRZRkhZhPapKdh5foNKe99/c30fzZvueN82Re+samM0dyDAEKBTgjxq0VyUta7M58c171l+vqNu3YjxOFAkNFY6/EqY9BIGtgZQ3JCAioqq1BWVob4uPiTznz3yjKMej1aJCZg9779pumz35gx76tFD9gcDk19nxf5j6wogb1P73mGAp0QcoIB/fp+Omfm47e3TExw/f7n33B7PBAEwe+xrLr2ulYSwfEcSsorIMsKgs0mcCfZ3rRmwlvLpEQoqoqvf/7tznc+/fypKpstqqHOjRzj7PeeJc0GBToh5Bjjrxhx1+CLLpyj12qxOyMToiDA42cmOgffenBR0sLllcEBKC4pQbndBpfHA6Ou9t1HGQMURUF0eBg4QcDSVasH/LDgw/9lHDrcq+HOjBzvVDe5IecGCnRCCAAgJT4+57n777lWksT1ezMy0alVS+g0tc+ZUhmDXqsFOB4bduyESauFVpLA8/xRe5WfmBiKosBsNKFTmzZYsnJ18vxvv3thycrVNOGNkLNE908IIejXpdPyPz9+v/2FPbqt37ZnL1SgziIxsqLAI8tIiYuFVq/Dwbx8aETRVzymlueo1UvckuJiYTTqMevjT++77oGHDlCYNx1Gk+ICCvXQCTnPjR46+JkHx495SiNJ2JKRCVEUaw1lAOB5HgaDARrZC0EUIIgiNFLdq59kWUZkeBgSoqOwdueu/q8t/PSVw/n53ev3TMjp4jme7qEHEAp0Qs5f6hN3TRlzUZdOi/OKiqE1miCJ/n8lcPCtLRcEAV6vjBC9HhIHuN1uMFZ7b15lDALPIz0pCVVVldoZb895+ePvl9zTgOdEToPA82pTt4HUHwp0Qs5DKYmJh566a/KI8ODgnbmFhdAIPIRa1pZzABRVRXBQEKqqLMg6dBBR4eGQBI2vbKviPxO8sozY6Cgkx8fhox+XXPH6R5+8XmmxpDbgaZHTpNVISlO3gdQfuodOyHmmb9fOK35cMLdDj44ddm7bu9d3b7uWHravtCsHjSShorwCLqcTVocDYi09ecDXK+c4Dh1atkCVzW64+bEnFs58850fKMybH5Pe4G3qNpD6Qz10Qs4jA/r2nvPW9Gl3hYYEY+W/a+q8980Yg8gLqLDZ4VEZDG43eJ6HJIq+Gex+rgFUVYVJp0PLpET8uWnLsKnP/W9uaXlFQgOeEjkLklZDQ+4BhAKdkPPEU3ff+dAtI4e9ujczCw6+rolsDIxxMBgMkDgOOcWl0BgMaJcYj0q7w/8zGAMYQ0xEBMorq4THXn/zja9++uWuhjsbUh+q7E7//6DknESBTkig43h88MKzY24ZMeTrDTt3obSqCtFJyf4P5QDGODCmwGG3QRMSAkWRYdBqoaj+O3OKokCr0SAtKRGbf1/Z+63PvviopKysTUOeEqkfcWEhFOgBhAKdkABmNhoqln/0weALhwzasPGH72H1eCHWUsJV4HnYnG7odVrEBwehsLAIIcEhkCSx1vKtiqIiLioKWknEqws/mfbWp1+8oig0z+pcIWo05U3dBlJ/KNAJCVARoaH7fn9/7qDOvXoeLtq+o87Jb7KiQFZUJEdFIjs7G0aDHuC46t3RTjyeAVBUBSkJCcgqLomd8dqb72/csXNow54RqW+5xcXWpm4DqT80y52QANSjffu/P37p+a4JMVGHc7KywfF87WvFFRVBJhMycnMBrwdxERGwOp21hn/NhUH3tm2xZtv2ntfcde8uCvNz07ghg3Kaug2k/lCgExJghlxyyQ9/fPnJRSatzrk7M7vWXdJ4joPX64XT7UZafBwYY8jKyYVG0tQa5oqiwKzXo21qCj7+6ZexE6Y/vqayqiq0Ic+HNJwVm7bmN3UbSP2hIXdCAsiwi/rNXTb3rcnQG7Dv4EF0bN3S73EcBzhcLpjNZlzauxdgt8Kg1ULlOLhk//fAFUVBQnQUnB43Hnj19dc+X7r8vgY8FdIIBMZoHXoAoUAnJEDcOeH6l1+dOvmRjIOHEBUeXuuyNMYYnB4ZQUYj2iYlID4mBgd2lkCtZeJbzZ7lrVKSsT0jK/qBV15bvDsj88KGPBfSOG65+oqMpm4DqT805E5IALj39ltnvDN3ziOHc3NRVmUB76eMa00JV4CDAAbmdiM+IgJVVqvf4wFfmHMchw6tWmDVps0Xj5h67y4K88AgiSJkWc5s6naQ+kOBTsg57sl7pt73+rx5/0NhIUorKmtdlsbxPDQaCSFmE9JjomCzWaFUB/bxapaphQUHo1ubNpi/6Nu7Rt513x/llVXhDXoypNGYjEb7tYMuz2vqdpD6Q0PuhJzD/nfnpFvvueXGD1BaApfVWvsEOJ6H2+1BeHgYEsLC4HJ7oNFooaoqIJx4Xc8Yg8mgh8vrxayPPp7zzW+/T2nocyGNKzE2ZlNWcbErtqkbQuoN9dAJOUd9POulsY/ePOGDzbt2w+VwgPMzbO7bXIWH2WxCYXExLJVVMBgMUFTVb7EYxhgUVUXn1q1QUFJq7Dfm+l8pzANTbklp8QMvvNLUzSD1iAKdkHPQx2/MHn3D5Nu/2rJnH7yKUssacw6MMTBVwda9B3C4sAgCz9c5zM7zPFLiYvH39p1tHnz19W0ZBw9d3vBnQ5rCxd27Fcy4d2pTN4PUIxpyJ+Qc8/3780dcOXHisso1f8OrKODFE4fZeZ6Hy+WA0WiE1ytj2e+/IzrI5Nv2tJaeOc/zaBEfjz82bxl8z/Mv/QhA0winQ5pI+9Tkre0T4pq6GaQeUaCTZqtm+FdRVTB/e3UGqJpz9mfWMzOHXznxtuXunVt9Ye6np81xHBwOB4LNZiSnt4DdagUUGZIk+R1mlxUFJr0e6S1bYsab79w+/+vF8+r9pEizc3H3bpnxMTFN3QxSjyjQSbMk8DwUVYXFbgfA1bqsKhB5FRU2p1M4Pnw/fvvNETfcdddyOScbLo+n9rrsshccx+HygZcjOCoKhfn5EMUTN1ip+XNsZARKnA68+uHCZ+Z9teiJhjkr0pzodDqXKTxifW6VFS2aujGk3lCgk2aptMqClJho/G/SrRAFHjiPeuimoCAUFRWVrv71V5dVlnUA8Onbbw4ef9fdv6rZ+yF7Zf/rzDkOXq8HcEsIT06BKsuA01nrxZDKGELMJuj1etz27P8+Wrl+400Ne2akuUiJi93tdTmcu7ZuQYs+FzR1c0g9oUAnzZLD7UZCZCSS0lIBlcG3v9d5IjQUbQoKq6x2uw4APnp99pDxd939q3IoEy6XC6Lk59Y2x8HjdiM4KAihCUlQVQa3y7cVqj+yLKNFUgJKyisw+rY7l27asWN4g54TaVbCQ0P3l1usKCkqbuqmkHpEgU6aJVHgIasK7OUVkFX1POqfA0HgsCMjMxkAFrz68oSb7r3/F+/hbMhut9+laQDAFAUKgJSWrWAIDoHb6fB/HGNQFAUprdvgUG6e6aap963ak5nVo8FOhjRLPdq22doiPQ2mWuoWkHMTBTpplnhegMPpgsAL0Op0cDgc5819dLfNBl5VXXOefqrfrXfduUbOzoDMVHA8D6acOFnO4/VCkWXoQ8Igu11wu5wQdHq/E+BUxpCYlIRNGzfG3vDYk3/k5Of7372FBLTxV478q2OPHmgdS2VlAgkFOmmWBIGHIsvIyspCy9atERISApvdXutEsEAiKwrSEhMOulX1oCUnB3qOA+enmhtXPcxuNAeB53xrzlVFrnXfc1lR0LllC2zbvbfVBeNu/Nvt8UQ29LmQ5keSJHteSdnaqpWr4bVaMbRD16ZuEqknFOik2TLo9cgoK8Pff/+Dfv36QiNJ8HoDf7dHnufhcrtRUl6BdMaAWkYmZLcbYTGxSGjVGrwio64bE15ZQccW6Vizc1eHEXc/8K/b4zE3VPtJ89Y6LXW3IgjqwX37fNNTSMCgQCfNFmMMQUFB2LFnL3IOHUK7Dh3Oi0A/KY6DInuhMobUDh0hShJcdht40X8dGEVR0DY1Bet37en35Jy5K5wul66RW0yakcv79vlr1C03QDmQcT5NNT0vnB83Jck5S1VV6HRaCIIARVGaujlNjjEGMAaN0QTRYIDi9cLrcfsv5aoogCShTceO2J2ZdeFDs9/4h8KctEhJWZ2zZy92ZmZhd2ZWUzeH1CPqoZNzAsdxAGNgqlrrTO/zgSCIcNttkIwmSDo9VK8XvHjijzFjDKJeD4SF4vN33h38/Pz3f26C5pLmhxUWFf3z1Wdfwu50AgA6jby6iZtE6gsFOjnnnK+hzhiDIIpQvDLgcPgucvz0zFVVhUaUIKWk48NXXxo68aHpy5uguaQZapmcvKNHp/bltkoLvCFBTd0cUs8o0Mk56XwLdY7jwThfxTxeEMFxnG8v8+MwxmA2GoHUFvjyvXeGT3xo+tLGby1priZcMfyXKybfDRzObOqmkAZAgU7OWedLqHM8D9XrBcDAQUStVfMYg0aSgIQEfDPvvWHjpkylMCfHCAoO+WXnP3+iKi/vyOBOv6T0pm0UqTcU6OScFuihzgu+H1HF5QAvaQDJ/9I0pqrQG/XgopPw3IwnBj7x6mvLGrOdpPnTabVOp9Xy94+ffQaHLB/5+37XjWvCVpH6RIFOznmBGupurxduux08VIDnay0YwxiDIEngEpPxwaxXBz/x6ms0AY6c4KJuXVZMGj3KXZCXD9VPFUFy7qNAJwHh+FBnjEEQhCPlT48ug8oYA8dx4DgOTFX9Tiw7+RsygON85VhV9cifAfz3uv5Uv+/xbap5nqoqAOOgMhURYWFQHTbIogDRaKqlGQwCx0PTojUWvPrSkNsfmv7T6Z8MOR9c1K3rYn1QEKTS0vNqb4TzCQU6CRhHwpkxSDo9qspKIUoSOI6DpPMtv+Y5HqJWC4/TAcXhgDYkFEz2+tZsn2KwM8Yg6vRQvF44qiqhNZogaCSoigKmqlC9Xkh6AzieA+ALd47jAJ6D6nbD43JDZSq0egOYIgO8AFVVoXhcMISFgeN5SApD986d4bHbIMte3wXDcdTqe+aaFq3x48IPht9OE+BIHdITE1es2bINlirLMX/fqonaQ+ofBToJLIyBMQZeEOBxucAACIIAEZwvrzkevCSBOQHF6wUnSGCqApxm0RpekqDICrwuFzQGI8ALgKIc2c1MIwjVgS6AcdX11XkBgBuKokBVZMDAHemlq4xB8XrBSxpwPO8bQq/+e7+nqarQaTTQt2yJT999Z/ANd9IEOFK7/n16b7r+4YdyUVoKULXFgEWBTgJSTajzJ9x7ZkeGwzmeB5jqt/d70tdXVQC+96h+wyNfqymC45uMftTrM/XI14+/589Vt6embUxVodQybM8YQ5DZDC7IjGfuf3DwU2+9Q/fMSZ2iIyO/XPrjclTlHDphLsb1d93dRK0i9Y0CnZBzCGMMIs+DS2uBxe++O+ypt96h2ezkpDqlJC4p2fAvSq1WgO6gBywKdELOEUxVodHpoElsj1kzHhsy7X8vUZiTk+rbudO6uyeM21dWUgpZpf0QAhkFOiHnAMYYJI0GiI3H1+/NGTLtfy/RbHZyStq1avljnsyQX14F3s/ETyorEzgo0Alp5hRFgUmrhdSiDT5+641BN91zH4U5OSWiIOCusaMXxRgN0MXHNnVzSAOjQCekGVNVFXqDEVJqKua+/OLgyY88ShPgyClLio/7RyNwB3Zs2wbvUdXhjpbcyG0iDYcCnZBmSlVVaLVaGDp0wEevvT5s8iOP0j1zclqGXXLxZztz8pGTmwehlmqK/Ru5TaThUKAT0gwxxmAym4GQYLw78+mhdz79HIU5OS0aSXLePOrqDyPj49GlsrKpm0MaAQU6Ic0NY9BqJCA6Eh/MfmPQnU8/R/uZk9PWtW3rpeUF+a4N69cBXO17HbQeOKQRW0UaEgU6Ic0IYwwarQ58fCyefXTG5U/Oev2Xpm4TOTfdM/rad3p37oTosLBaN/YhgYUCnZBmgjEGgefBJyRj4euzhzw563WazU7OSHRkRO4lAwf+UaEo0IVHNnVzSCMJvD0nCTkHKYoCrVYLTVorfDn33aE33/8ghTk5YxOvu/YdbUoanB4vIEl1P0jAoB46IU1MVRn0Bj2MUZH4Yt67Q66ffCfdMydngcOV/S99s+LwYXjc7qZuDGlEFOiENCFVVaE36qFr1w5vPPbEsPteoHKu5OxMGjf6s97XjnEo+3ZCDTY1dXNII6JAJ6SJMMZgNhohpqfh09feHH7fCy/RFqjkrEWYzc99/clHsOcXVG/hWzvGGG55uH0jtYw0NAp0QppAza5pYnwcvnhv/rAbHphGYU7OWp+uXdaNvOKKvXl798Ko1dR6HMdxYIzRkHyAoUAnpJGpqgqjTgdDhw54+sFpl8987U0aZif14rZRVz3d54LesMVEoNZtUjnfBaXidiMkMalR20caFgU6IY1IVVXodTqYEuLx0etvDp752ptUm53Ui8TYmEPXDej/U9mmzahyu2o9juN4uJ0OCDo99HEM2kZsI2lYFOiENBJVUWA0GCAmJWHWM88NnvbSqxTmpN5cdcnFz9itNuzOPuh3m1QAAMfB5XDAZDbhwj4XALXUdyfnJgp0QhqBqqrQGI0QIyMw97U3h0x76VVaZ07qTURIcNndY679tKy8HEaN5H+wnePAVBUqByS1bA1O0sBjt6H2O+3kXEOBTkgDY4xBr9VATGmBd55+cvDUmc9SmJN6NW7kyFfj09M8u/fuh9Yc5PcYjuNgraxA6y5dkdC+AzxVVY3cStLQKNAJaUCMMYiCALFFW/y4YN7wqTOfpdnspF5peN5y/7jrZhfaHDCYal93rni9SGzVBtEpKfDabQBU1DpxjpyTKNAJaSCMMUiiBE3LNvjwjdcGT7zvAQpzUu/uvW3i7NRu3TyHd+2CWa8/4escx0GRvXDKXsRER0OSNPA47ABt2BJwKNAJaQBMVaHRaqBp2QafvvXGsIn3PUBL00i94wHH3aOufrGiygJJq/Pb31YUBXqDEcntOkBlDG67DRxNhgtIFOiE1DPGGHhRhKZlG/y48IO+N9xzH4U5aRAPTb792YjWrdzZ27cDwrG/zjkA4Dg4LFUICgtHOGNQvV4K8wBGgU5IPeMZg6FVS/z7w3cxV958K+1nThqEQaezPnDtNS86yssQbDSe2DvnOHidTsS2aIGQlHR4bFaAsaZoKmkkFOiE1BPGGJiiIKxTRxzesDFu0Jjx6wGYm7pdJDA9dPMN0yPDw7Bjx05APK53znFQvB54ZQUhSSlgXi+F+XmAAp2QesAYAw8guF07bFi1OnbYjbdssbvdUU3dLhKYzCZTyeiRw+fsKy6BR284YX6b4pUhGU3oeeHFQHg4YLVCo9ed+EI0MS6gUKATUg84xmBqkY5Nf/4Zc9E1oze5vV4Kc9JgXrh36pR2LdOxf/dehOqPLd7KcRw4jYLc8gr89ccf0IgioKrHHMMYAwcgJiYayRde2ngNJw2KZkcQchYYACbLMHXsiN0bN0f1G3H1FrfXG9vU7SKBKz0+bsdVfXt9s2XtOpSVlqCksOioRyHyc3JgtTsQHRsHUVUBjxtQ5OMeCuJiovD6vAWjm/p8SP2hHjohZ0hVVQgch9Ae3bFz1arYy64du9mjqjFN3S4S2J66a/JEXqtDldsDQRBO+LrMqfAwIDEsFLGREVAU5dgDGBASGoKyiorIr3/9/ZXXgK8bqemkgVGgE3IG1Op15sEpSVj/8y/tLr9u3O8Wp/OcCvMeHdov25mR2cXlcsU3dVvIqbm0V8/F1954w8bSwiKkmk4s8crzPNxuN6qKCrBn105wnHBCMThOVtCySydMe/q5l/OLimj/1ABCgU7IaarZz1xIScfbT84YevezLyzDOVZD87k7J93drX37t9fs3BU2f9E3GwtLy1Kbuk2kbnqtpvKjxx8eZ9m3B9byCnD8sd9yTFWh0WjAa/UQRAmmkLATXoOpKkIT4rFhy/boj5b9dLMgCI7Gaj9peBTohJwGpqow6HQQUpLx/isvD7772ReWN3WbTte0G8dPnXzNle8sWPITgs2m8plTp3R/6q13NxWVUag3Z6888tBdyT17yQV79iAsIvLYL3IcVFWFwhiMwcGI0mjBjpsIBwBM4BGUkoyHnnrmTQDQajSVjdF20jgo0Ml5j+M43+Q2VT3pMh6B46CJisRXb8+5+raHp3/bOC2sP9NumjDl1pHD3tt36DBkVUVhYTG6tWtTMWPy7d1eWvDhuryiolZN3UZyouTYmA2jhw/7fMfuffA4XH6/T1VFAa/IcBYU+maxH3cMUxTEpKVh1cJP077+6ZfRAMAdfxA5p1Ggk/Max3HweDzQ6A2QDEaoslzn8dq4OOxYty5l7N33nXNh/vitN99184hh723LzEREkBk8x0EUBeSVlCAsKLjy2bvv7PHkW+9syS0qTm/qtpJjPXfnHTdk796FwwUF4PjjJsIxFYqiIC4pCcnJKeDCwnxFjnBcIRmtFglBZoyf896Cmr+iPA8stGyNnNc4jgNjDK7KCnitFihOOzw2C7w2q9+HIzcHyTHRRZPGjXmpqdt+Ou4ePerum4cOnrPjwAE4HQ7IHg88Hg8AQBQEFJaWQq/VWJ+9+86e0eHhB5u2teRo44cOeX30sCH7jEYD2rRIR5u0lGMfLVsgPSkJZpMJHlWF3e2G0+OFyyMfedhdbkREReGnf9f127B7T/+a15Zl+cRp8uScRT10ct7jBQEelwsWhx2SVgdBEKCqqt9pbqyqAkFhYc65H384XVYU5wdfL57Z6A0+TdNvnzh10hXD3zmUVwBRq4VRkqAzmWAwGGCrDnVBEFBYUoqkuJiKZ6ZO6fH4m2+vL6moTGvipp/3wkNDKubNevkBptMiKhXgjx9GV1XozUFw2apwYPcuuKwWv5uv6PV6FOzcjpseemT+0X8vCMKJN9rJOYsCnRDGIGg0cNttcNtsCIuKAq8oUBXlxHuVggirxYrQnBy8/9brT4cYTZj94Uczm6Tdp2D6xJvueWHOW++oxaWIauv0DbEyBm1kJKTIaCz6etGRdcqCIKCguAThISFl/7vv7p6PvzVnfVFpGQ2/N6FXpz0w2tC2A3Ps2g6zyXTM1xgYREkD5vGgpKISKckp/u+tqyriWrfG/PnvX1dWZWl39Nc4jqMC7wGEAp2QajzH+4pyyDI4WYYoSb6e+vHHCQKsFiuCvF7Meu3lpy1WCxYs/nZm47e4btMmjJsy+Zor31OKSiAYDDDwPDhwvpGH6h768QRBQF5xCRJiospfuO/uHtNnv7mpuLyceupNYOCFF3w35rprfj+85i+objeOHzLieR6iRsKWzZuRkXUQer3+xFElxmDQ6WDcsk24/+VZc45/D0VR6LZrAKFAJ+QooiTB6/EAsgytXg/m9YL52aWK53mUlZUjWFEw/+MPnjYYTezNhR8/3QRN9uuxiTfdefOwQe/tOXgI4a3bwiSKvvOqpnG7j9xDP54oCMgtKkZcZFTljMm393hh7oKNhWVlFOqNiOd5z9ezXxmvN5qgLywCrz2+XjsPpsiwWm0wR0ShS3gkhOMny4GBVxQkdumKGY/NeMJud0T4eR/qoQcQCnRCjsIY892nFEVUVVRAp9NB1GigKjL89ZCsFgtCCgvxxqyXn3E5HZj39eImD/UHbxh/121XjHh354EDgEYDjVYLaDQQVfW/Wc16PVQAVTYbNAYDvLIMHoBWkuByewAO2HvoEELM5ooHb7mxx7Pvzd9osdko1BvJC/fcNT5UIzgz166B6ueeuCor0Bn00IVFoFNMDDSiAFU9NpuZqsKcmIg9mzZFfvvLr0/5ex/GGE1zDyAU6IT4wfE83C4XVNkLU3CIr0fkr6cuCKgoLkGIV8bcr754RtDplXc//uS5JmgyAOD5qVOuu3HI5Yt3ZGRCYQwSx8HlcEDgeXjc7iPHSRUV0EsS2qWmICgkGKoKGLQaCDwPrywDvlvtsDmcSEyMr/jp3bfSb3liZvb+g4dSmurczhdd2rRe+tDttyw+lJsHjyiesLSM4zh4ZBmME2DQG+CVFXi8xy63ZAAkngd0ejz8/Isf2B3+C8L5+54m5y4KdEL8YQyiJEF2ueB2OmEwm32Tx/z8AhREERWlZQgz5GLO2288L0Hl3/z4s2eaoNWQNBqvVq8HL4rQixLAARv+WA1J0oDnOMiKDEVR4HG7ERwVjSsu6w8wFTqTGUz2wlJVBUEQwDgeDADHVLRKScbWfQfCPIpCvy8amEaS3O899vD4Q1lZKCwrh3DCJDcOiuKFzmCEQaNBaX6u3+9JTlEQ264d5j3/3KVLV60e0TitJ02NfkAJqQPH8+A4DrLX6/tzLYU4BFGErawMZlXBG3PnPOv0eLn5X37d6MPvD89+43urw3H7HVeNWLD3YA68shcuhwOKJFf3vr1QFAUutxuS0wm7RgLPAczrBWQvnG63b9kex0NRFHRv3xartu5offlNEzcoKjM39vmcb+bNfGJ87+vHWSo3b0FYbMKJk9xUBl4SoTOaIErSCfuc1xyDyAhA9uJ/Hyz8vFEaTpoFCnRySjiOA+/nXt55geOgKgpURYbWYKzeBN3P8Lsooqq0DGaXC/PeeeMZo0bDvf7xpzMbu7nPvjd/vsBz6h1XXfHBjswscAAkja+HDp7zLcmDb0a7r6JYddnb6nPylQ0FOrdphd/+XtNq1PTHKcwbwbXDhy2+6bEnvkFJIULiE088gOMAcLCUlaK0pATguFp3BIqOjsIDDzz09KH8gtiGbDNpXijQSZ1UWQaMRsRFRyHabIag08Ery9A3dcPqgaqq4AAEp6YAZWU4vN83icwfjvPdL3d7POBU1bdEyA9eEGCxWBHC83htzptP7zqQkfrbmrU3NdxZ+Ddzzrz3BV7gJo4c9v6erGyoNZP9TqLmMqVNciL+2Laz9aApd68DQGHewHigeNaD946tLMiD7fAh8Mfvc84YVHAIMhkBjwu8Ip94DHz13CPS0rD9p+UJry385MmTvjHdQw8oFOikVqoswxQRAWh1eHHugjl2m5Ut/vjDu2IjI2BxuU/+As0YYww6rRbapER89OZb18WGhOQMHth/7cGMTL8bWwCAIEpw2qzgVBWm8BNWAB3B8zwqysoQqtFg2Zef3Nx78IioLXv3DW3I8/HnibffXeDyeIS7rr16XkZOLmTl5EXBVEVFl9atseTPv9te/eAjawGcuOk2qXeL3nvnyrD4BOXQtq2Av5EwjoPL6YBiNCIiLARaPxeUTFWhDw4CbzLh5qefX3wq78sJAiV6AKFAJ34xWYYhOgowB2HiuAnTP/72uykAcP+jj5e+9sT0p7iKSr/bM54LmMqgEUUYW6bjh08/G3HLw49+DY5TNy/+PLVr9+6HCw/nAH56P4wx8LwAMAav0wGO891j9/c58DyPqqIiBCcnYuXiL4YNm3DLsjVbtw1rjPM72vPz3p/Lcxx395hr5+7LPgSXUvvmM7KioFN6Gv7evqPN6EdmrGOKQj3zRnDfTTf875o77lyLony0b9fWT7U3DuB5uO02lJcUo9Lh9DvaojCGkNQUvDTzmYlbdu3ufSrvLfD8uflDTPyiQCcnUBUFhvh4IDgYU6+f8NiHi795vuZrr3+48MnioiLus48WPAmbA8V5Ngj8ufNtxBiDpJEgxsfilaefHfbwK7OXVH+B7zvupk1rF3/Zo8sFfQ8V7dx1/F5VJ5AVBQIAQZLA1BODkhdFlGVlIzwpCf8u+2F4l8sGLd+2b3+j99SfnbvgPVEQ2F3XXjNve8aBI6VejybLMlq3boVfVqxqfdW90zZ43G6Tn5ci9axDi/QNz0++dcbhX5bAUlnptw67LMsw6PUIj4mFRhT9XkAqqorYuFhk79hlnv7am3NP9f1VVT1PJ8YEpnPnNzFpFExVYQoLA4LD8fCk22e888VXJ6yp/nz5z09EPvQo9/o7bzwR4rCjsqoSUlM09jQxlUEURYgpLfDZO28OeviV2cuO/rrb44m4eMLNm1Z//EHXbv365BzasrXWdbqCIED2eOD2uBEaEweF+V/TK0gSyrIPIjw1DX9++/WwqyZOWrpq3frhDXOGtXtqzty5giCot185YsH2/QeOaatXltG+TWtsWL+x9ZX3PbTBTWHeWJRX754ybOeuXcg4nANRPP6niEFlDAwcUhIT4PV64PWeeOHImG/EKdpkwA33PbgIp/F7nWq5BxYKdHIEUxSYQkIAkxF3Tbj+sTmffVFrgZQ3Fn7yOMfzeO2NV58Iy+Nhs/svXNFcMMYgiQIMHTrhm7lzhk6Yeu9yf8dZLZbw3teM2bL5l6VdO7ZumXNwx65aQ53jOHAcD6fDDigKjAYDvH56v7woojIvDyEpyVj5w7cjel52+ZKNu/c0+trgx9+aM1+WZdx+5YgFW/bug6r69tHu0r4dtuza3frim27d4Ha7aZi9kcx/8rErL+nbu3Tn/gy0a9fe/0GMQVEU8BwHp1v2U6sd4FUVrdu1wpNz5o39Z/uOwafTBqoUF1go0AkA3z1zY2QkEBWNKeNvmPHe51+etNrZ6x8ufNxpt6nvvfPWU0EaC8pLSxujqaeNMQaB52Hs0Ak/fLBg5LWT7/qxruNlVQnve8U1W5bPfafXxRf0zSrOzfNNlPNzrEarhd1iQWVZKdrExIKXZSiyn+F3QUBlVhZCWrXCup+Xjex/zeilf27c2Og99ZnvzpvPcxy7Ycjl72dXWtA2LRWr16xrNeL+hze4KMwbzTWXXjLrtqefWYacHHQLjzrxAAZwgq8Ggtfp/O82CXfsMVBV6FJTkLVmbfCLH3688HTbQZuzBBb6xyRQZRmGmGggJAT3T7ztiVMJ8xpzv/7mycn3PjCTj49HWFgYZD9h1pQYYxAFAeZOnfH1e++OuOrWSXWGeQ270xk+8LbJGzds3JwS1aolOPgfUmeM+QqxAHBYrVDdbvBiLdfJHAd7Xj74sFD88uWnIzq3bPHTWZzaGXtyztwFc7/7YVL/Sy/GtuxDKf1vm7LRbrVSmDeSNklJ6+Z9+P40VFXBrShQBPGYh8wLYFodIEpw2KzwqgoYz/ke3H8PleMgmYyAomD0gw8v9nq9/tdc1oGG3AMLBfp5TpVlmCMjgfAwTJk4acbrHy487ZKlcz//8qnbx9/wJB8WhujoKL+TrppCTZiHtW2DbxfMHzFmyt1LTuf5Xo8n9MIbbtm4Yc26lLDWLcGpaq0T5QSNForTCbfTAU4UfbPfj7sA4DgOnCDAlpUFnV6Ljct/HNa9Q/smCfUXP/xk7qRp0+ddNfW+v0DrzBuNTqOx/7T4y8HhKelwFxcBqlJdtEg5UryIA6DKXlRWVsLh8cLh9sDuOvFhdbogJCTh5aeevnXTjp0Dz6Q9giDQLPcAQkPu5zFVURAUEw1EROKma6577OPvfjjjTUUWfPP901qDUXr7lReeCLNYYHE667Opp42pKjSiiIhOHfHhe/OGTZw2/bTCvIbH4wm/+PobN6796tNunS++8LBt42YI/sbeGQMvCFDAUF5UAINWD53ZDNV74np9ThBQkZuH0LhYrPr6s2GDxt6wfO32HY0++33+14tvb+z3PN99/86bg1J69q5ybt8MledPXKEGDoJej7ysTGQfOACt3uA75rgrSVmW0TolGb99vDD6kTffWXCm7aFZ7oGF/jHPU0xVYQ4LA4xG3HnTLTM+/u6H50/+rLq988lnj0+YeMczxvAwRIWFQRAESJJ4Sg+NJEGsLkV6tlRVhaTVIrplC7z76mvDJ06bvuzkz6qdy+UK7ztmwqYdGzYnJ3bq6PceeQ1BEOC0WuF2OcHz/JF168fjRRElWdkwm01Ys/zHYT07dlh6Nm1srlISE1YJAm9t6nY0B9Mm3Xbn4Fsn/uvetQMyY2CqClU59gGOg62sDF6rBYmxMYgJC0F0aAiiw/57RIYEoV3LdAQHBeHOp55ZfjbV3mjIPbBQD/08xFQVxuBgICICt0246bH3v/m23rb7/Gz5T0/ojQZ19sMPzLRarPCyUx/R43gBgr91uIoCg14HISoSQRbtKbwQBySl4MOXXxl058xn6yUonS5XxEXXjt300/w5Pfr26X3QUV7hd/idMQaxunxsRUkx9EYjOMH/dbMgSSg9eAgR6S2wevGXI4fdcMuyP9ZvaPTiMw1lxCUXfTb0kosnrN60pfuiZcs3NnV7mtKl7dsueOX+u99FcTE8qgJePLZwEWO+WzKSRgNVVRDbshUEUTzhYpCpKiSdDmJ6S0wZP+H5jLz8bmfTLp4KywQUjvbDbd4ce3fW22sx328NGMPDgeAgTJ04acY7n33eIHt333vD+Mm3XXv13Ny8vFNomG8IMTwqElFBZvDgwAk8jOYgZGdloaCoEBExcbDKCtx2u9/iG0cLjYrELytW3/r8nHfPeCiyDhXblv3QudOAS3MK16wDz3HwKgrKKyqQkJQMxlRUlpXCoNfDaXdAZzbBZDL7JjLJMiSTGYypkF0uKG63rwiYKCEkJQWwWNBt2BVLt+zb3+iz3+tb/969Pps+8aYJqzZshCpIqKyqumz+V1+vOB9/33Rp3Wrd+tUr+kiMQXZ7oPgbsan+nt65dQuKS0qhNxpOGGYHGMAYkhMS8Ns/a3rdPuOJdWfbNoNeX2h3OGgDlwBBPfTzCM9xkEQRMBrw8N33PvHOZ583yJ7didHRu8YNvvzfdq1bIzosrM5jfWu5OSgeD2RBgN1qBRjD0f2XEHMQtu/ejc15RQgKDobHYQfH8Seuya1mCg3F1gMHUuvvjI4ReuHo6zf/9f3irp07dsgt2bOn9nXqggCBF3ybwPgpJVuDFwRUZWYjOC4W639aMqL/6OuX/b1x0znbU+/dudOie64fO6GsshJ2pxOVjgp0bdtm5cRrR132/qLFK5u6fY3JYDCUf/XOG5dJ0dFwZx+E4vH4vSBl1RMm45ISER0b63dnQ1VRENKiBQ6vW6e9fcYTTTKZkjRv1ENv5tSDmfXzOmAQg4IApuDWWyfd/8EPS2fXywsfp1VK8vbPnn68V1pKilvQ6uD2eOo8nuc58IKIivIycNX7OzNZgSAKR3rohSWlkL0eJCUno8ewEb4d0awWgKulp24wADyHO2646f55i75pkPM0G4xFqz79sE/3fr0P5uzYhYqqKiQe10N3udwwms3gBAGqokCv00E0mqGq8jE9dFGrgyorYCpDaJtW8JSXo++QkUs37z/3eur9unb5avLoUWPdbg/AGHZmZaHS4UJYcBDCQkKQk5fff/7Xi1aeL793Vi98v8Ml11y1q2rHTt/+AMddhHLgoFavnhB1Omh1OviZAwdVVaEzm4HwcFx22aBfVq1dN6g+2kc99MBCPfRmrqyooF5eR1UZosND8fmCj0c2VJi3Tk3ZuuiFZ/rxquo+mF+EFumpdU5y43kebpcbXsUBxvPgwUH1NxzJcZC0WuzbtxdOhxMXDRsOSBrIVovf3o6gKFCcDowefPlr5ZWV/OLfVrxarycKwOqwR/cbM37jph++6dahc8fDZX//U/vcJA5QZC9krwChlp3cfEvaOFiyshAUG4sNK34e0Xf4lcvWb99xzvTUL+ze7csHb5owLqewyLcc0mg88jWB55FbVIRWqSmrJo0dPWDBV4tWKOfo5j6n6uX7po68pGf3XRWbt8Ale3FCmlffAtPo9RA1GshuN2SXy281OI7joEtKxMx773+wvsLc1wSqFBdIqIfezP077+2zfg1FVZESG4MtWdmxVz4wPb8emnWCNmmpWxe/+GwfjSC492UfRHJyCpKTk+CsY/mapNGgtKQUXtkLg9EAcDxURQYU9ZgeenFpGVT49oN2Wi2IiI7GwCuuBCdKcFtODHWNTge7xYIvv/gCJoMOv6xZf/+H3/3QIBcxQWZz6S9z3+nZs3XLg1VeBeBwYg9dFMBUBo/dBkGSEBaXAJfNBtnpAHgOolYHVr21Ka+RoLg9CElNgbW8HIOuHbts7Y6dzT7Ue3Xu9OW0myaMszscyCspRZBeD6Nej+0ZGah0uBAZGgKH2w1REJAWH4e9mdkD3vvyq9+but0N5ZHbb33wxf89M7sqIxNWu93vEDrPC/C6XHA6bBBFsfaLX6+M9E4dsGzl6l4jJt991vfNj6bX6YocTmdMfb4maTrUQ2/mEhITz+r5jDGYDAaEmE249O4Hz2r5Vm3apadtWfzCs31FgXdn5xf47tPXgeN58BwHq8UCr+yFKIq+McaT9RUYQ1BoGArz87F66RJcOvJKaIOD4a6qOjbUq+/L2+x25OTnY1T/S17zuN3cZ8t/nnXWJ3sci9Ua0e/6G7f8+dnC7hcOH5pVtmt3rcVnOABepxMet8u3Y5afnjpQXfs9KwshSYlY8+vy4d0HDl22edeuZhvqF3bv+sXU8eOuL6mohNfr9btSoYbA8ygoLkGrtNQVt4+5buCCrxb9HmhdioE9u7/+4mPTZ4NxEIOCER4SeuJBzDd3QmUqnDbfvBF/IzeKLCOiZUsUbN+mG3X3/b80QvPJOYwCvZk7VHB2Q+6qrKBj61aYOe/DO7NycrvWU7OOaJ2asu27l5/vreF57/7cPEiiCE8dleI4jgOYCo9XgdvtAVc9nHjKGENIaBhKiwrx17KluHDY8BNDvbqnExQUBI+ioNRiwS2jrp4tGQz8R4u/feVsztdvk4CQoVPu3rDhm6+6tene9VDFP/+A+Yt1joOo1cJts0HxeqAzmiB7/c8x4CUJ5dkHEZbeAqu/+3r48OtvXP7Xxk2NXnzmZNq3SP9r2s03XJ9TVAybwwmTTnfS53Ach4LiYnRs1XLFHePGDHzvi8DpqV/cres3c56Yfn95STHC1AgAvvvfR1QPs0saDTgOEEUt9EfdmjiaqjLwYSGAKGLEPQ/+6vbKIfXdXlqHHlgo0Ju58KDgM34uA0N4RAQO5hcYn5u34PX6a5VPu/S0LV+/8Exfiee9hwqLTt4z5zjwggCrpQocOIiSBFn2nvb7MsYQEhaB0qJCrPjhe1x25VXHhLrH5YIoihg9ZsyRYUy9wYABo0e/apIk9vYXX9X7PXWbxRLWfcRVm/5Z8l23Lu3aHi7IPlj7EKrKIGi0gCBAsXsgav2HIC+KqMrJRXBaCv785qthPYaMXLppz55mM1EuOjLiwNQJ44bZ7A5YbPaT/vsfjeM45BcVo1Va2oqbRl0zcOE3357zod6pRdr6X79bfK1WFGAtr4DT4wF//MUqz0MQRVgrK3yrNWoZzVBVBq0kIjw2CnfdeMvLm3fsvKgh2szzPAV6AKFKcc2cLjj4jB/6oBBEJybh/aU/PQ7U75blbdJSt/44+8U+ekl0HywohFjHsizAN9ysqipsVgu8Xrn6nuKZ/y5hTEVYRARKigqx4vvvILs90JqDfEPZ1UFqNJthCg6GKSgIgtEIWKwYcUGfWQO7d33gjN+4Dg63O/yCK0dt/mfNupTY9u2q2+mvpw4IogS30wm3ywVJowXHc7VUlBNgycoCNFqs/XnJiAu6d/O77Wtji4+O3vfknXf01EkaW3llFXieP/KvWfNfjuPglWU43W64vV64PF64vV54vNX/lWVk5uQiOSFhxdiRIy5vqnOpDyEG/cFv33nzYm1YKBS3BxqNxvc5cPx/DwA6owkuux05e3ah6NAhFB8+8VF0+BBKcw8jSFUwe/pjo+Z8ueihJj05cs6gSXHN3J8fzT/j55oNerjcXuMlt95R6vV6Tz4Weopap6Zs++HVF3oZtBrP/sO50IoiOODIULvH7UZcfMKRSXEcfAHm8bhRWV4GSauDRpIgqypcTidESYIkSQDvmxSnemVIGgkpHTsiZ/t2bNyxG4IkQGWAJIpQFAU6ja9UrFtWUFpSjITEJPQdOAiSKEDxeo8MbdYQJQkelwt/rFqFoJAgfPfr79Nemf9BvQ+/A4BOpyvd+O3X3dqnp+QUF5WA00iAyuCt7pFpdHoIkgZerxcelxN6kwmcokDQaH0T6BQVAIMqyxA0Wt9EQQYEt24Fb1kZug8Y/P2OzKwrG6Ltp6JNetqqh26+YaQK2IvLyhGk18Pi9JW6NWi0sDodMGm10Ot0yMzNhUtWERYcBIfbDa0kQSeJUFTmK8qjqnC63YiOCEdZeXmnBV8vXlFcXhHRVOd2JswmY/na5Uvbtuvdu9h98KBvedpxmKpCazTB47Tj4LZNvoqCkgbHXNRW/1+FqWidnobf/lnXbtCUe3Y1ZNsNen2R3eGgSXEBgobcm7kte/ae0fMYY0iJi8Pi31dOqM8wb5uWtuWbl57tqxUFz8H8QkjiSXrmnK/nabNZIWk0EPi6v+UYY9BqNEiKi8F7Cz68kZfloos7d/xlz6FDvmIyx1FVFSGhYcjLOYz9O7ahU5++vjXd7Nj7+F6PB7wgYPCwoUBUFPpeeNGreTk58uc///ba6X8KdXO5XBE9rxm9+bf57/a4YED/Q8VZWeB4/58TL4qwVVZCq9XAbDRB9XP3neM4cDwPW1Y2TDFR+PPbr68aMHbCss179jbJRLmeHdr/1rdjB/uqDRuRFBnhW1Kl1UDgeYi8AKNOA0kQ4HC50S4tDQadBrJXgUYSoaoMDo8v2DWiAMYAh8eNuIgIcKkp2z/9YYmrKc7pTOl1Ovefny7s3e6iC4vVw7l+wxwAJJ0OTpsVe9b+A1tlBXRGk5/RGwamKEhJSMCefRn60Y880eBFeOgeemChQG/mWiQknNHzeAAJsTHYlZl1Q321pVVK8vbFLz7bVyuJ7oP5hdBptfCc5B44x3FweWXYHQ6ESFKdM9nV6u1Ok9q1w5x5719717P/WwgAi2e91L1tcvLm3dkH/d6nZYxBq9NDVRTA5fRFIs8fM4RdM/HO43ZDY7UiNzsbV1184etOt5f7btXqel/S5nS5IgbePmVT5opfWsa1bFlRsHef/wMZq67fzVBZUgRzeCQ4ngNTT/w9ywkCqg7nICQ2Fqu/WzR88NgJy9Zs3dboof7Fsp/+Z9LpbGMHX/6WzWaDw+0Gz/MQeB4cAEkSwIODoqiQVRVWpwNetwyjXgdZVlBht8Ok00Kv0cAjy4gKC0OpxWJ+eNab6w8XFJ7ZN3wTmT39oYu6dO+a4d2fAdFkBn/c5RgHzvc3DPA6HYhNSYVG3x4n3G6q/qMxIgy2nFxcMfmeXyotVdEN3X4K9MBCgd7MRYeFnNHzQoODkZmb12LngQMX1Ec7WiUnbf/uped6awXBnZWXD52kAWPM96g+pqbHoaoqOI6DVqtFWXExZHAQNZo6Z7MzxqCVJCQkJ+GtOXOvveeFlxfVfG3CY0+tnf/ko327tm65KSMnz+81Acdxvs0sFAWqywVeq/MNuR/XC1JVFZ6qKgSFhKBP/8sw8tbbX3v04UeE1xd+Uu/D7y6XK3zgjRN/2rD8hz6x6Wk4vGMHJK3/zWU4joOlshK6oGBoNVoo8F90hRdFlGRkIrJNa/z704/Duw0YsnzL7j2NOvtdlmW8+9WiN2VVwZRRV7914HAOZEUBY75hdFlVIHA81OrvD57jjqzD5jgOoiCA53koqorE6CjY3R7jQ7PeWJ9TUNimMc/jbL0549HLb7lq5IbirGzoTGbwLieY+t/IUE2Qi5IIUa9HUFgYgmNigeM3LKr5FjWbAFMIbr3/4XczcvMaZBLc8VRVpcIyAYQCvZnbX1R62s9hjCFS1GD5uo0Xy8rZV+NKjY3e882Lz/aUOHgOHD4MSRIhe71gqgpZ9vo2UwHgVRQwpoIxBoHzFbTheB6qLIOvY9KcyhgEnkdCqxZY8MkXo44OcwBwuV3SrU8/v+bDZ57s3bNN6y07MjJR6xw/jgdTFCguFwS93m+oKx4PjEYjguITALMJ99004dXC4mL1y59+qfd16nsyM3v3HXHVqn9++KZ/Umoqcg8frvVYSaeD1+WE7HTCGBoGtZZtWgVJQkV2NkLT0vDH4i+HDb9xYpMsaZu/6Ns34yMiSq7qf8mXm/fuq3P9+fFkRUFKTAycXo/xvpdnn3Nh/uq0+6+++85Jv6ulpeABuKoqwNRj15JzHAemKigvL4fMc//VWziOylRoJA1atGmFmbMfue+LH5dMbqzzOK0lo6TZo0lxzVzZun9O+zkcxyEsLQXjJ94x//MlS287yyYo235eFtWpT6/ygr37IArikblmHMcdcx9QUVXoNFp4FRlbNmxA67QUiIIIm8MBjudhMhhgraoCL4pHJsU57HYYDAakdemEN9+cc/W9L77ybW0N0Wq1no+fm9m7Y1rq1oN5edBqNHB6vFAUBR63G607dEDHjp3gdNgBVQUEAYJO73tyzeiBIvuKePD8kfvaGq0W0OswfsKND36+7Kd6X9IGAB1btVz1z+cLLzObTSgpLoWk08Pr9frWoTMGDoDTboPOaATH8QiKiIDbYoGoN4CpCjiOBy9JUL0eeB1OCBoJnCAgKCEBsNvRedCw5dsPZDR6qIuiiDcemdara6uWGzJyciCJ4pEeusPlBuN5CDwgexXotRooiooKmw3pCXEQON5410uz1h3MzW3f2O0+G3Off2b0pOuuXlSWlw+IUq3LE5mqQtRq4PJ4IHs8tYanQauFSeDx7Nz3Bz638NPfGrLtJ7w31XIPKNRDb+b2Zp3+5iyiICKotATb9+7tdbbvP3PqlMc7DR5WjsOZiI2O/u8eeM0vsaN/SfE8VLcb2Tl5yC8qRNuWLfwuxaqhMgaNKCItLRUffPJ5nWEOAG63W3PD4zPXfvj0E/36tW+7+UBObu0H8zU9dScEnR4cx4P525udMUCjAbM7cPM1V87ieJ59tmRZvffUd+w/0P+CcTeuXPvNl5dFJiWivKDI73E1a/VreucanQ4el9PvPXVeEFCVnY3ghARsWPbDsMsn3Lz0z/UbGnWduizLuOelV9fOmfFI704t0jdm1fVvAkBRFMRERsDl9Zoenv3W+oN5eW0bqan14oX77pk46cbxi7J37oDE8TBqtFD8FFJSvF6IOh0kvQF6c5Df12LMN9dD364D1n7xefvnFn76a0O3nwQ26qE3c4V/rjjt5wSZzSgtLzd0GTW2oKKqyv9vk1Og1WodP895w2g2m1BeVl5rD0NlDJIgINhsgsXthd3lhuq0o3uXLoCiwOZ0ntBDl0QRKgNSW6bjtfnvX/PAS7O+OdV2aTQaz2f/e6Zfn3ZtNm3enwEwdmIPvRqr3rq0pqeuyt4TeugMvl+ugiRBCjJj0m2THpi/6Jt6D3UA6NGp44o/Pv1ooCE8DIWZ2b6LjKN66HqTCbwgwGAyQ1UZXG4XJI6DpDf4dm07qocuVG/owcAhtEU6FJsdvQYOXrJ5/4ERDdH2ukgajfedxx7u1yk9beO+Q4cgCeIJPXRJFBAVGopii8X85Dvvrc/JLzinhtmfnTrltrtGX/t+mdsN5nLCqNVCbzQdF+gMiscLXUgIdKFhYIpvFz1/u6xJPAdBkfHL2rXB1939wEGr1RrSmOcDACajscBqs8U19vuShkE99GZuwfc/nvZzjHo9yiqrUmwOxxmHOQCMGTr4hwuHDkXOrt0ID4/0e4zKGIwGPYrKypGTlwemMugNetiddr/H12CMIbVlS3z01aKrTyfMAcDj8WgmzHjq389feLZPh9SULbuysms9lqvuqasuZ60T5Vh1HW3JZIJSZcFVl10622q1ql/+/Gu9L2nbuH3HgL7XjVux5dflA2LSUpCzd5/v3qofvCCgvLAAQeYgGIJD4G93Mt+SNgGWrGwExcVhzbIfRl4y+vqla7dsbdSeutfjkab+7+V/33r0oQvap6ZsOJh37B5AsqIgOTYGTo/H+OTb763PKTi3wvyZqVNuv+PqK9/fnZmFyLjYEyvAVVM9XuiCQ2CMigFTVTCOxzFpznzhLul04GIT4Ny6gZtw5z1rrA5nSKOcyHEURaHiYgGEAr2Zm//j6RcG4wUBstdrlGuZVHUar/PHL6v/RFleHvytN1MVBSaDHqHhYbDZ7AjW66GVRNjdtS9lY/AN07bo2AH//PNvi1tmPFnnMHtt3G635vpHn1j74TNP9u2cnrp5+74DtR7L8TyYqkBxu3x7rh/3y/jIyIPbDZvDgb0ZmRjUp9frqqJwX/+2ot6XtG3ft/+yS64d9+uvCxcMSkxJxuHsg9BI/if5SRoNFEWGpbwMptBQ32xxP6NqnCCg8nAOQpITsPKHb0ZcMnTkTxt27R5S322vi8cX6mtee+iBC7q3abVu+/4M8DwPWVEQHxUJl9dreHDW6+dcmD915x2TJo+6esGezEyA4/2PVHGA4vZAMhhgiIr2FUhSlOrpokfhOUBW4C4tQWFhPsZOvGNlqcN5Tt12IM0XXZ01c2a97rQfwXodgvQ6drYzWC/s3OlQq+hItIiNQYu46COPlnHRSI+JQudW6WiXlIBn3pqDn//6B2aDwW/xlxoMvouANm1aY+0/a1KGTp66/mza53a7Nbc8+czaLfszu7VJSYZcx6Yw4HhAVcE81Zuh+Pls5OpKZlddeSUuvWwAPvv049cemXRrg5Td/HvDhst7jbz6d5fKkJSWCtlb20WQb8mXraoSdrujukdeyy5tkoiyzCzojQasW/r90G7t2v3UEG2vi9frFe5/ZfaabQcyeqYnJcLt8SAhMhJeRTHe8+KrGzIP57Rr7DadjeuHD33z7utGzd+bfRCyotQZ5qJOD2NMLFRVOTIHgh33PzAGbUgI3FUVuO7aMZ+u27r10sY9IxLIKNCbOZ7jTv/B8/VSMEIUBei1Gmg1ErTSfw9JFGHS65AaH4fft+7Arpw8JERFQlXV2mf8AmCKgrYtW2DTzt0pF99062arxepnX8nT43a7pVuffm7tlgMHuqQnxAPV98j9PnwF5cG8Hl87j/vlrCgKBEFAWtu2SO3YEWJoGEYPHvTq5b16PHi27fRnZ2bWgAuvHbvCUlWFhOSkOi5IOGh0etgsVagq882Q9104nfhZC5IES/ZBcJKI1d8tGnZp714NsmVuXbxeL3fPS7PW7szM6tG/Z3d4ZEV//yuzNxzKzz+nwnzUoIELXpw6+d59Bw/BLdc+S90X5jqY4uJ8o0Gy/N/3VvXPA8f76rlrg4OByBg88PrbL2/MOji+sc6lNlRYJrDQkHszV2qxnvZzqofchbOd8Lh21574qJatUJZXeGz2cRyCw0Lx3ptzsHD5L2iZnATNSXbaUhQF8W3b4J/fV6QNvGPqRq/Xe9ZhXsPtdksTZz6/JTQ6dsBVN96wEnWs9YZQ3VP3yoBwbJtrluG5q3ybjUgOBwpKy3DLNVfNTklJ5uZ//U29L2nbtH3HZf3GTPh965LvBqYnxKOgsqrWNfscY1AVFS6nA5KkAcf5H6bnRBHluXkIa9USq75dNKLHwMFLNu3Z26gT5TweDz9t1utrn5h8+x1f/vzrxJyCwnNqWHn8yOFzX73/7snZh3Ngd7kgiILfWx2Kx9czN8XHg+N4qF7vsReK1f9fkWXfbZXwSDx5z9THPvjmu2ax4QrtthZYKNCbuZuHn/5tUN+kuEr7Wws/wVndR2fswqHXjnkfWftq/uyrVW02o/TQYSz/9XcY9HqIggC1josHWVHQrl1b7N2+M3XQlHvWuVyuegvzo4VFR3shSv+tPa9NdQkvDr6ek1LTgz+Kqqpwu1y45NJLoTcaMW7y5FklxSXc96v/rPeKcrsOZAzoe92435bPeePy+KREFBw3oawGx/m2nHVYqgBBQERcgu8ixM+xvCDAmn0Q5rg4rP3x25GXj7956er16xt7SZvw1NvvLmjM96wP1w0ZtGDujEcm78vORpXdDo3o/8JJdntgCAqGMTYBHM9B9XrBH3dhy4siZIcdntISGOJi8OzUuyY/+857zzfGeZDzDwV6M/fQhLGn/Zxgsxml5RXZH3/7XWVZRWXImb73l0uXXz1p0ee36DUaWOx28DwHj8cDm8pBYcy3u5ZOV/swOwNURUW7dm2xfuu29MsnTtrgcDjqPcwNBoN11Yfzu/bq1ydTLSz0e3/82Hap0Op0gCSBeTwQJY1vOZjLdcz+1ExVYTQawRmNkC1WPPHQg6+mJiez1xZ+Uu899Y07dg4ccPudq9Yv/rJ/bEI8LBVV4CWN32N5UYTL6YLX7fJdlNR2nhyHqvwCBCcn4ZevPxvR5dIBS/YcPNzoS9rOJaMuH7hgzvRpt+cVFaHSZvdf/Y7j4HU6YQgJRVBiMlTGTuyZ11BVaHQ66Fqm441XZo9/8p333m34syDnKwr0Zi4rN++0nyOKIkxmsyM+KurQ2QR6pcUS/MmPSyc9MO66eXsLCpAQGYl9h/NQKSvo3b4dJFGs+545U5GYnoZ/16xNG3DHXetdDRDmRqPR8u+Xn3bvlJaSmZeRidjUNKBm4pu/dqkqtEFBcNns2PnXn5A9HgSHh6NFx07Qmsxw2/67xcFxvgsYVl3lq9uQoejWq/eswsJC9Ytffqv32e879u67tM+1Y39fs/iLgUHpqbBkHqz1WJ7nwBQFvEZT67byNbu0VWZmISQ5Cf8u/3HkoNETlm7YubNRe+rnitFDBs9986H7JucVFsHtlSHwPE6Y1cBx8DgcCAoNQ0RaC99ET4/Hb5gzRYEQFAQuLBLvzHx82H2vvPZpY5wHOX/RpLhmLiwk+LQfwSYTohMT0CY1ZdPZvv97i799vaC8Ut+jfXvsy82HoiowVG+0Utc9elmWkdCmFfbuP5By8U23bnA5HGFn25bjmYyGqn+//rx7p86dMrbv2efbnKUOTFWhNQdB9Xrx9++/IGPPblSWlmDPjh344+efAOYLe3bceu8jk6GsVhRkZWHERRe8Nuryyx6o7/MBgG179w24ePzNK9xVFgSlpsJT6+x337C6yhhslRUQBME3uuDn34QXBFQeOoSQ6Gis/GHxiN4dOzT67Pfm7rphQ+bNe3z65PzCIlRYrBCEE381cvDt1mcMDkVil+7QmILAczw0wSHQmM3QBAVBExLi+6/ZDG1MDLiwSCx48fmLpz79fKNPTiTnH+qhN3OfLz39370MDBHR0eB5fj2AiWfz/k6XWz/lxVdX/fjGrD6p8bHYmpEJUfK/YxiAIzuw9WjfDuv/+idl6J33blRUtd7D3GAwVP375ae9OnbplJG5a0+txVmOtEtVoTWboXi9WP/rzygtKEBYVBS0ogiNWURhfi7+XLYEFw4dDl1wMFxVVccMvwMAFAWKqqLcasVt1456LTwsjJv31eJ6ryi3cdv2y/oMGvH7xj9XDmybnoaDObmQapkoxxQFXpcTbpfLt7qhtn3XJQmVBzIQkpaKtb8sH9Z76Igl67dtp+F3AFcP6D9/1oP33pFTXIxyiwUazYnf3xzHwe3xQiNJCDEZ4SouhOxxw+V2o7yyChpJgleW4fZ6oZV89d1btW+HHz/66ILbH338jyY4rVNCu60FFir92sz98+WZjdIFhYUhc/+BNlfffd+e+mhHq7TUda89cO8Ys9l86FBZBVokJeKLZcvx7eq/EBkagtGXXYqBvXogLDgYZrMZP61efdmkp5793u31muvj/Y+m1+ksaxd90bNTl077Dx7IABjgsFoRFhODqMQkyMcNuTNVhdZkApMVrPppGapKiqE1mSDwPHSSBIUX4Ha5YK0oR1B4BC6/8ioIggiXpQqcKB4ZTuU43zC32+WCwWSCaDBgwm2Tpn32w4/1PlEOAHp16rhi2TtvDIwIC8Xh/AKA56GVRHjdbnjcbkTExkEF4LRUQZFlcCpDSGysr3iP2wVBlHy7z8myr6AJY2CyjOC0NDiqLBgydvyyvzZuavT91JuTCSOHv/f8nbdPySkpg8oAxe2CIIgw6HWwOZ3weDy+MrZeDyReQLv0VOhEAS6XCzqtFqXl5di1/wCCDEZYnU5U2uwINurRpWUL/LVlW8+bX3h1LZrxSKjRYCiw2e1U+jVAUA+9mUtPSz+j50miiJatW+/t8u7cLVt37+l6tu3Yn5Xde+z0x/eMHTp4xiX9+n2aEh9XEhsVCUEUodPpkBQXi8TYGOzNzGr//py5d37yw493nu17+hNkDqr84+P3e3Xq0O5A9r4DECURilx7QZmae+ZQVaz5/VcUFeQjMjwc7uNm/zPGEBYegdyCAvy5fBkuHT4CuqAguGw2cDW9Y1WFIAgICg4G9Ho4Kypw9WWXvsrLHuWTZT/X+z319dt3DLjgxomrdi//vn9SQjyyDudCK/n/keUAMFWBy2GHKGpOrFBWc5wowpKbh6DkJPy56IvhXQaPWLZt//7zMtSvGzJ4/ruPPjRl5/79qLS7EBpkPuGeOcdxcLjd4AUB7VukwWwwwOFyQdTqwEsSJJ0epqBgGPR6MEmCzPPo07E91u3e1/O2V15fg2Yc5gBtnxpoqIfezG1a/MUZPY8xhriWLTH79Tfvn7Xw03oNm4iwMHvfrp1/dbo96/bl5lUZtFq+ZXxsnN3uuPCvTZsukesI2LMhSVLVqo/e73nBRf0O7N+5Czq9ARzPQZEVvz10pijQRkQALhf++Xk5KsvKwCQNdKIAtyxDFIQjPXSX0wmJ4+CUZShuF8IjItFn4EBodAa47DbfBDPA18tVVWj1epSWleHjzz9HenQklv695t4F33z3ekOcd48O7Ves+GjBwCCzGXn5eWCyfEIPXVUU8DwPj8sFncEIc0QkVNnrm5woK0d66ADASxqoXi+CoqPhdTow8Pobl/65YeN5NVFuzLAh895+6IE7SioqcLggH0yQEGQ0wuN0HOmh210uWK02iKKITq1bwmTQw+5wHglBjSShoqoKGQcPwaTXw+JwIDE6CruyDvWc8OTTa71eb7MOc4A2Zwk0FOjNXPmmtWf2RAaEhIYgv7w8pNUll5c4nY5zejSG4/mq1e/P7X5x716Z+w8dgigIECVNrYHOFAXa6Ch4LDZ88dEHCBEFRERGocJmhU4Uaw10u8eDYLMJpSUlCAkLw2Ujr4QgaeCyWo7UUa8J9LLycnzw8cfgZRld2rbGol9X3D938bf13lMHgK7t269c/fGCAUEmEw5mZUFVFL+B7nW5YAgJBa/RgFMUSDq9b0nVcYGuyDKYLCMkLRWuqir0GTJi2bYDGedFT330kEHz35/5+KTMQ4fhcLtht9sgc8IxgW7U61BhtcHtdqNDy3SEBQfD5nAc06M9OtD1Wi0SY6KwctPW3pOee+kfRZH9T2ZoZijQA0uzv4I831kqKs7sUVmBnKxsJERFVl516UXn9NpXncFgXTX/3e4XdGiXuScjq9ZKajWYqkIbGQnZ6cKsWbOwPyMTsTExdc7KP5qqqggODUVpcTH+/eVnKF4PdH5mvwO+kRBZlpGVm4eRl1z02pihQxqkTOyWXbsu6zP6+tUerxcpKcm1z37nOPCiBGt5OTxuFyQ/E7x8h/n2Xa/MzIROr8emFT8P79mhQ8DPxL7iskvfn/PoQ5MKiop9s9n9rDPnOA6yqsIry0hNjEdoUNAJYX40WVHQLjUZ63ft7Xn7cy+sOVfCnAQeCvRmrjA//4wfefl5OLh9O+6bMG4mal2t3Lzpdbqqn95+vccl/Xpnbtt/AILA11pIBQCgKtCGh4O53Zgzezb2Z2YgMSH+uD2rT44xhqDQUBQX5mPl0h+her3QBgf/F+rVy/YcTiecTifsdhv2ZGZhcN9es8cMGtggob4nM/uSi2+49Xer1YqWyUlQvbVVAWTgBQGMAdbyUnA8D573X7qUFwRU5uRA0Oqwcsl3I3p17LikIdreHFwzaOC8Nx66/7bcoiKUWywQ/FwYchwHWfHNVk9PjEdcZCRcbnedYd4xPQ3/7tjVfcKTz/yrKufWrHHG2DnVXlI3GnJv5nJX/35Wz2cAEtNT8djTzz30wvsfvVw/rWocWp2uYs3nH/fumpJ4YM/Bw/B6PNCZgyBIIjjghCH34MhIxHftDqWqEu+8+RYysjIRHBaGmNBQdGuRBoUBlXbbSYfczUYDZEWBXF1/u6CgADGx8bj86mvACTxcFRUQRBFeWUZBURHAGERBgMJU8ByP+FYt8eTjTz744tz59V5RDgDapKauXP/VJwPMyckoO3gIHof9vyF3txum8Ag4bDaIHAdZ9sIQFAxRFI9sBc9LGqiKAqgqwFSA4yC7PQjr2AHO/Hx0Gzx8+d6Dh4Y2RNubytghg+e+Nu2+yZm5ufDKXpgMRjhdbmg1EixWy5Ehd5fdBhVAakICosJC4HJ7oKiq34tInVYDngGvf/rF2CfnLjizyS7NAIV64Din76ueD3Ly/df1PlVMVVFhqcItY0e/snDp8tvzi4pb1lPTGpTRYKha+f7cXl07dcjYtmkT9Do9ai+x4tv8JTIiAszlwttvvIG9GRlISkiAzek86XtV707n/4uMISQsHEUFeVi15Hv0H3EldEHBcFZVQhJFpHfo4FvWpvqCEbwAmE2YMHzIrG1btyo/rdvw2pl9ArXbm519Wb8bbv1j489LLglPSkLuzh21bOvJQWswwFpZASbLiElNh+x2+b31IEgSbJmZMEWEY92S74ZddfuUpavWrguIiXLXXD7g/Tem3Tv5UGEhKiw2BJsNtR7rkWUkxcYiOiwUDpfvs6ot7QRRRJXVHr5y2/bJ3Tu036bXaGyZ+QURXkXhBZ5nHlkWokNDrBpRVHKKS0M0knjMMJHHKwuJURGVTo9Hsjmc2ujQECsAlNtsBofLLSmqyoeZTI7EqIjKwopKc35peXCo2eQIM5sceaVlweCOXcugqCpn1Ok8x3/dXzs8siyEB5ldLRPi62VZK2keqIfezGWu+u2sX0OWZcS3bImM7dvTul45KrMemtWgjAZD5b9ff967U8v0/fsOZMLjckAnaeB0Ov320D1uD/SShKCwMHz83ffYsn07khMSwAOwu92ICw/320MHgOiQEJhDQlFaVgaLxQK3ohzbQxdFONwe8AIHp8WKuLh49BwwEBpJgttuP3EzDp6HqNXi12VL4bLZ8MEPS97+YeXquxric+rWvt1v65Z8N0iUPTiUfdBX3OToHjrPQ5BE2C0WMFlBZHIKFJcTot4ARZaP6aEzlUHU6+CxWhGamgooKroPHLRs85595/REueuGDJr3yj133VFeUYFSqw2yosBk0EGv1Z3YQzcYYLNa0SIpERGhIXC63XW+NlNVqIIoRUZFeqWoSKjFJZj65nsotVph1utRUF6BWwYNQGx4CJ77bBHiI8KPeX5eaRkeH38d9ucWYP2+/bhtyOUAgGXrN2HXocOwOp0Y2qM77rn+Wnz9829447ulGNqzO0b07oFZi38Az3MQj7ptYHU60SklGcN798Dsb38Ez/m+7q8d+WXluOKC3pgycjjQpmP9f/CkSdA99GYuyqA/60dckBmssABd+vbKeuuxR25s6nOqi8lkqvrzk496d+rYYf++PXsgCkKd98wVVUV4aAjA83j340+we+8+xMXGnXQCnKwoSI6Ogsvr1U994eXvNu3ZO7BdWmqt99qZyhAaHo7CwgLsWfM3OMag0etPeB9VVeFxuXDBRRdj5E03YeEbr03t2LLFotP8GE7J5l27L+85bOTvNocTySnJte6sx3EcNAYDbBXlKC8uhqTXg+P9f6q8KKAiMwsQeKz9/pvhF/Xovrwh2t4Yxg0fOm/u49PvyCsqQlVtG634oajqqU2gZIBWkrxOtxsoK0dJRSVcLhfcbjdcLhc8bjcsNhsqLVZ4qv/u6IfH7UalxQqbzQaXy4UKiwUVFgvsDgfc1cWDbHY7XOUVsNhs8Ho8sDscqLRY4Ha7j7xPzcPtdvv9ur92eNxu2Gx2VFZUnOWnTJoTCvRmTggKrpcHbw4Cc7gw9aknPrl9zOiZTX1e/uh0OtufC9/v1a1zx/17TqGcq6qqiAgJgdvjxcfff4+C0lLERUedUpgnRkXBKSvaqS/PXvv7mrVXzXj73WVr9+zp3iY1BYqf2ew172cKDobLasXhrRuhKr7laye8X80ubXoDnF4Z94wfO/qCrl2+Pq0P4xRt3bt/QP8bJv5ut9mQmJRY+3a51VvEKgDcdjtUr/fE0rY1eAFVefmQQkPw+6Ivhndt3eqcC/VrLh8w/73HHr4jv7gEVfZTD/PTwv23ysEry5BlGaqq+nru1RcFiqJAURQwxqBW/716/Ner/1xzbM1r1DzHK8tQlP/+LFcfc8LrVf/3+K/7awdjDEr1sSRwUKA3c4Ik1ctD1Grh8niB8grMe+/tp28bddVLTX1uRzPotJV/LXy/R9f2bffv2bMXUi0V0WqojCE8OAgupxMLv/sBBcUliIuKqnNfdgDwyjISo6OgMqYZ//jMddv27e8EADaHQzNhxsw1W/ZndG+dlFhrqDPGoDWZYK+sQvaWjVAU5cRQr96lDV4vCouLsXv/ftxx1cgxnZMTG6SnvnHHzgH9rr95pcPlRlpKMpRalrRxHAdBkuC0WeD1eMALgt97776pAAIqsrKh0Ruw4Zdlw7u3a3vObOgyZujgue899vCk3MJiVFpsDRPmhDRD9J3ezLGaq/V6eHAAPFYrnDk5mP/8M9OfuPvOp5v6/AAgNSkp699vF3Xq0bHdvj179598oxXGYNRpYa0J86IixERGnHRpmleWkRwbA4+iam586pl1B7IPdj7667LXK90689k1W/Zndm2dlFR776U61B1VFcjatN5/qANQbDbExcRg8OAh6NmnD75ZvGj05RdduPgUPpLTtn3f/v4XTrhlVZXVhsjkJHhrW9LGGESNFl6vF+WF+eB4odaeOi8IqMrNhaDVYMXiL4f17dyp2ffURw8dPHfujIcn5xUVVy9No19x5PxB3+3nGY7nUVlZhZLSMjzz5OMzn506+QYA/rujjaBTqxYrfvtwfofOvXrm7NizF6J48pocAs/D5fFgwbc/4GBePqLDw2rtUdfwyjJS42LhkRXduBlPrdmTmd3F33Eej0ca/9gTazfs3delXWrKSULdDHtl7aEu22yIiozE4OuuQ5u+/ZDeozeevmvydWmx0Q0y/L5l565Le469YbUKHqlpKZDr2HqVqSpcNhu8HjfAWK2z/HlRRFlWNoJDQ/DvT0uG9+jQfmlDtL0+XDNwwPzXHrh3ck5hMSoslmMmjBFyPqBAPw8JggCbw4GKgwdxaZfOn37+ygsdL+jR/QxrzJ65wRdd+MF948cNFMCcJdkHIZ2kZw4AXq8HIaGhgKTF4fwChJhNpzTMnhoXB5eiaG984uk1+7Kyu9V1vMPp1Nz8+Mz12zKyTxrqujpCnRMEeDweeIqK4C0vh3woCx27dsW6334Zc2mvng3SUz9wOOeSfiOv/q2irAwJKcm+9eZ+cBwHUauF1+2Cy2YFOK7WUBckCeXZBwGexx+Lvhh5cc8ezW74/frhQ9+bdf/dkw7l56PSZvNbNIaQQEeBfp7iOQ6KqmLH/gPo17Xz7nefmtF3/BUjH4wIC6ts6PdOTUzY9doj065+8s47bi2prEJhadkp/QKWZS+0Gi1CwyOg0+mh12pOWv5OVhQkx8bA5fVqR017dM2Bg4e6nEob3R6PdMPjT63bvP9A5/ZpZx7q/x3mm5hkiktARFIybr1q5HVt42O/OpW2nK51W7YM7DfuxhUKOEQn1jFRDgDP8fAqChT41lvX1VOvysuDITQUf3zx6bCurVs1mzKxowZf/v7b06dNyS8qbrgJcIScA+g7/zwnSRIO5uWjqLgE1w0dNPu9Z55KHzNs6NNpCQnl9f1e7Vu22PnAzTfe8fbjj3bo2b7t93lFxXC4XCcNc47j4HG7oDeaEJOQADDfjOCTbf2oKCpiIyLg9HjMV02bvn53RsZpbSPrcrk04x59ct3m/Rnd2qXUPvv9VEOd43molipY8wsQGxePeW+8PnbIpZd8ezptOlV7sw9e1m/UmF/tVivSU1PqDvXqkRGPy4Xay6j8N1EOkoj1Py0ZcUmPHk0+/D5q0MD5sx+457bcoiIKc3Leo0pxzZzWcGxVKw6AojLwADiDHhCqa3RzqK7VXf0LuebvOM5X/5UxQCMBKgMrLDombHieh0d242BuHmKjosqn33bzzJzi0tfe/PTzayQOY9ds3zGosspyRu2Pj46u7Nau7dLYmJjP7h533c8lZeWosFpQXlYGjd4A/mT7MXMc3A4HwqKiEZWYBE5VwZTaw6mGoiiICQ+H3eMJmTb7jfUFZ1ghz+12a29+8pm1Hz3zZN/e7dps2nPwkP8Djwv1tO69oNXr4XY6j7nw8Lrd0Om0GDBkCBAdh5969RzVe+iIL9bv2j32TNpXl/Xbd1x+6YRbfl85f87A5IQ45BeV1tJ2gAMHt8cNVZZh1Otrv1jieZTn5yOsbVv8+t2ikR36XfTHgZzci+u77adi/Ihh895+5ME7dmcfhKqqFObkvEeB3szlZxw45s8MgEYUIQM4WFAIu8vlqyOuqBAFAQy+daaSKIKpDN7qGt8CB1jsDiQkJiItIhxu14m//Hieh9XuQH5xCaps9qq+XTt/+MzUyR/e/fwryQXFxZ1bJMRf/su/a7pn5+bF250Og06UwhRV4QEOHMd5XV5vRWRYmK19Wuq+AX16byy12lZ1atVi08BePS1f/rYCVVYbcgoLIYriqd3j5Dh4PW5otFrEpaWD4wU4Kiug02rqfJpvnXkkPLIc8uoHH20uLClNPY2P/ARej0e65cln1nz6/NN9urZqubnSUuX/QD+hrtHr4Tkq1LnqTV1ktxtiRSksVRY8cvON42Z9/iX375atY86mnf5s3L5jQO9xN67a9sM3/eNSkrF/9+5aj+UAyF4v7KoCY3Co/2M4DhwvwJKZiaCWLfHnN18NTb94QIbD5Yqt77bX5ZrLB86bO+PhOw7nF6DSakOo2dSYb09Is0SB3szlHRfoKmMIMhrgBPDbX/8iv6wcBq0WLo8Mg1YLlSnwyDLMej1kWYXd7YYkCtBrRBwuLEalrGLOIw8iSKf1W4ClJnC8soyi0jJUllfA7nQeuqxPr0N33nnHj1f/8TcmzHgSveNida/eeXvEum07dMEmE4LMRvuNz79afnHP7u63pt2L6JYt8fWi71BeXobcwkKUVVTAK8snHSY/mtvphCEoGGEJCb42uV0nfb6sKIiNCIfL6w2d/dEn6882zGt4PB7pxieeXvPeE9MvvKJPrw1gDO7aZpEbDXBZrbBk7ENoq7YQeP6EiXtq9fB9ucWC8spKPHzzhLGvchz+3ryl3kN9T1b2pZdOnPT7z3PfHpiWlIgKh//69hzHQRBF2CsrIXA89OYgHNnR5bjPnRMEOLKyEZOe5lj99eddh9xw8+byKkuj7Ks9ZtiQ996Ydt+UnIIiWppGyFEo0Ju544fcGWOQdHqoAMLDwqDwAnQaDTxeGTqNBirzVZYy6nRQFBUmj6d6VzEBKi/CVVAIBsAcHo7yioo670VzHAdvdfWrorIyVGRm+UpTOp0w6HSuxOio3OzQEISYgxASbIbA87A7HCgqLQPH8SgpL4cqy1DrWBZVG6/HA4PJjMj4eKgez5FCKHVRFAUxEeFwur0hr7z/0YaCkpL003rTk3C5XJqbZ8xc/95TM6IEni9xuuqo9c0BRQUFGDHyCvQZPBie4mI/x/g2zygqLYPMVDwwYdxYu8PBbdm7b3R9thsA/t2wcUDPq8es3Lr0u8sik5OQs6v2nrrAcWCqAoWp4FQGjuf9XvypPI/KjEz0vOySonXff9O9/cAhmzyK0qChPnbYkLnvPvbwlIzDh+H2eGk2OyFHoUA/jzDGIIoiREmCxmiE0eWCoqpwut3gT+H+I4MvNHmOg8frRYXFCqvDAZ4XwAnckV7nydaEn4yqqtDqdIiOiQEEHi63GzqNts7nKIqC2JhIOFzu0Bfmv7+xpKws7awaUYs7bxg/u9tFF1mdJSV1L5djQFpKKuJiogFFgUavh+LxQD56lEJVIQgCQkKCwTgeLq8XT0ydMua1jz4R/tq4aVR9t33foUP9L73p1lV/L/q8f2JSEg7srWWjLc638Y3b6QAUFcagIL9r2jmOAwQBll270aJbl8KNPy/tPnDM+A3F5eUJ9d12ALh6QP/3X3/w3sm5RUWosFgRZDSCsSYroUBIs0OBfj5iDIrNBpPJhM4dO0BWFJQ7bKfdi24okiggLMg33KucwjC9qqqICguHw+UOeXH+BxsaKszvuemGGW98MP9/KCwEkpNOGIb+DwM4HggNxf41/+LXzz5Bh85dEJeWDl4Q4HG7fTP3rTZEREbixptvAuC7EAqJjcGwAZdde8m1Y75at2tPvffU123ecmnvK0b9/u+iLwamJyag1GIDarmY4wAwjoPH4wVUBYLmxLkLHAAZgCUjEx0HDir8a8n3PbpectkmhyzH12e7rxsyaN4rd0+5I7eoCE6vTD1zQvygm0/nK45DldWKru3bo1e3brDY7bDYbOC5pvmW4DgODBwUrwec1wNBEKp7/CdZmqaqiAgNhcvrCf3fvAWb84uL63WYvcZjd015/I0Fc//HcnNRmZcHi8UCS1WV34fVYgVUFTlbtmDt2vUoKSlBxu5d2PDXn+B0ekja6vkL1T10s9kMs9mMkOBgQBChqCoeuvmGMX26dP6yIc5l867dA3pdfd2KcocLUUmJdZbMFSQJLofdtx2rpPGN5Bw3MsFzHBgAx45taNW7Z9G6337qHmI259dXe8cMGzL/vUcfOu1d0wg539BPxnmMMQanywWtTo+BffsiNiIc5ZUVYGdwz/tscBygMkCUJAgAVEU9pfdXFAWRoaFwuT0hr3ywcFN9TYA73t3jx854/u03n0dZOWwWa6338ms+N5PJhKzMTGzcsBFavQ6h4eEwmYOwa9tWbPljNXh9Taj7RheO3gITbjdKKypRUl6BaTeOH3dxj+4NUnxm+779l10+6a6VssuF+IQEqHXs0sbzAhTGYKsohyJ7wfk5f47joAJwHchAh0suKlq5+KuuJp0u72zbeeWA/u+//ciDkwpKSlFJYU5Inein4zxWM6PdYrUgNjIC118xEslJiaissoCd5X3wU8YYZJWByV6Y9HqIkqb6r0++BWpUeDjcXm/IrI8+3lhQXNIgYT598qTH3vxk4f+Qlwd7WXmtcw0YY0d62zmHDmHL5s3QaDXQaDRQVRW8ICAoJAQ7tm7Glj9WgTcYIOq0fj9nnudhczhQWlGJx2+7eWz/Xj0aJNS37t7d/4IxE35zOJ0Iq2OXNgAQRRGWinI4HQ6IkqaWXdo4MI6DfcdOdO3bq3jTsh+7G3S6gjNt37gRw957d/pDt+UWFvrKuVKYE1In+gk5TzDGwPO8381PeJ5HWWUleEHAiIEDMeSSi5BTXIyS8ooG3eCC4zjYXG4oLhc8VZXgOe6kddkZY4CiICU9DS63O3L2R59syi0qapBh9qnjxsx4Yc7bL6CoGPaqqlp3JasJc5PZjIyMDOzYtg0GvR4ajebIhUnNMUEhIdi1bRt2/v0nBJPRV1GullCvsttRZbFixm23jO3XtUuDhPr6HTsHXjT+ppWK243olBR46wx1CUxVYa8sB8DVvp+6IMC2/wBade1UtPqrT7uGBgcXnm67Rg8ZNHfBE49OyS+u3jWNwpyQk6KfkvNATZjrfcO8SUlxsRCOW4ok8DysNht4jkNEdDSGXnQRLu3RDcXFJZBPoczq6eI4DpU2G9q1bIHU6Eh4XE6wk/zSZoxBAMC1aol//l0T8+5nX2wtrahokAlwU2+c8NBb78/7H0pKYCspqXOYvSbM9+3bh/UbNkCn00E6KsyPPlYURQSFhCJ7zx7s/vMPcDqd3zKxgO/fpNJmQ1llJR68acLYC7t1bZh76jt29u879IpfnG43ktLTag91DuB4Dk6bDR63y1etsJbvC5XjUL53H3peclHRhh++6SYJwinfU7920MB5bzx43+ScgkKU0a5phJwyCvQAVxPmCdExWLt16ws/rViZMW/RN1cjIR6SIJxYAtbrRXF+AXp2bI+7b5yAkPh4lFVWIr+4BBpJOuv2cBwHWVFRYbUiJSYawy7sB51WC1llJ0y2Ou5EwAMwtWqJv75fEjfwhps3VVmtDbLmeebdd97z1sIPX2VFRb4wr2MXOJ7nodHpkJ2Zia1btkKj1R7TMz/xNHwXAMFhYdi7Yzs2rFwBXqeDVuu/0I/A86iy2VFcXoHpE28ad2nPHg0S6ht27RrUZ8RVKywWK1qmptR+Tx2ARqeH02pFeXERBEmqdfgdgoDy3XuQ3q1Lwfrvv+kRERp60nvq44YPfe/Nh+6/43BBASpsNgpzQk4DBXoAY4xB4HmkxMViyR9/Pvjrv2unW6xW6Y7Hn/r29ZdnDTe1awuD9sT7uIIooKKiAna7HdGxsbj3hvEYcfGFOJibA4/Xe8a9dQ6AR5ahqCpiw8LQp00r8ACsx9U793MigKpC37Y9Vv/2e/zF11y30eVyNUiY33nl8DsfuGH8WyivgK2ios4wBwC9Xo+SggJs374dOl3dYV6DMV+xlpDQUOzfsxtb//kbvF4PjVbr96JG4HlY7HaUVlTgnuvHjLugW5cG2U99+959l/W9ZsyKCrsDESnJdc5+BxhcTic8Hk+tF2IcAAWANSMTXS6/rOCPxV/20EtSrT316wYPmv/2Iw9OySssoglwhJwB+okJUDU9weT4OCz5449pny1d/urRX7//meeXzn/tzeHG5CTo9PojRWFq1FSJqyooxJCBA3DFVVdBawqCUadF7qFDsDkcp917YhwHl9uNTilJ6Nm6JSwOB1weT50btDDm67kbO3bGppW/xwwfO2EjgAapGz79tlvuuXfCuHf3H86BbLOdtDKdRqtFVWUlSgryIVUX7DlZmB9RXU41KDgEWfv2YfNff0HQaoE6euoWux1lVVW4/4bxYy7u3q1Beuq7MzIuu/SWO1Z63R7EJCVBqaWnznEcBEGA4vGC4wWIftaoA/8tabNs24F2vXoUrlv+Yw9/S9quvnzAgtkP3jMpr5C2QCXkTNFPTQBijEESRSTHxeCnv/5+8Kvlv7zi77hJ02csfXn2GyO16enQ6XT+J2eJIixlZbAUFqJlaiou6NMHN153LQw6HSqqqqCqdS8xq9kEzuJ0QVUUdEyMR5jJCI8sn/TefM0OWmGdO2Hr6lVxA0ZevdXh8cSc/idycjMm3Xr3C2++8VZ6jz5o27kLZI/nhIuc/06Kg0arg7WyAoX5+eAFAYIgnnqYH/NSPExBQdi9Yzs2/vUnUN1Try3UrXYHyior8ejEm8Zd0rOBlrTt39//otHX/+qosiAqMbHWUAcAXuChchwsFeXgBd5vsZ2aJW22AxnoeNGFBSsXf9XVpNcdCfVxw4bMe+/Rh2/PK6QtUAk5G/STE2AYY5AEAYkx0fhh1R8PfrX851frOv6RF1/58Z1XZg03tW8HncEAtY5h1sryckg8j4WvvYoPn38WMi/A6XLBYrHUunZdZgwcz6FrahJkqwUSz0NR1ZPWd1dVFZIkwdCqJf5a9lPsBYOHba5yOKJP46M4ZQ+OH3vX7VeNfFspLoGg10On09V5P1+n06OsuAj5hw9BkiTwfO3D8owxXy19jaaWGfzVs9+DQ7Bnxw4cXvMvON7Xq/X3+fA8D5vdgdLKSjx00w1jL+zWtUGG39dt3XZ53+vGrVAVBXGpyX5Lv6K6jYoso6KoGLLHW+uoRs2SNuvOXejaq3vx2m++6hEVGVEx5IJ+Pyx4fPodeUVFqLRSmBNyNuinJ4DUDLMnxMbim99XPvT5ccPstZn6+FNLZ818ZqQ+NRVao7HWnikvCHA6HHCUlSEmOgrtO3TEoMsHISUlGQ6HA4X5ebA7nRB4HqIowu7xwO3xwsAB3VKSwPM8XJ7al0UdfR4Sz0OXno61y3+Ovfi6cZscHk+DhPn0iTdNnTLqyjn7Dh6C0+kEq663XltP02AyoaSoAIcyMyGKEkRRhK/Kvf/z4HkeBp0OkiQh1GyC109v98hEuZAQ7Ni0Cdl790JvNMJdy+0Ivnr4vbyqEg/eNGHMhd26NlBP/cBlF48Z/5vDZkdSSnKts985joeo08JlqYS7qhKCJKHWCn+8AOv+DLTv3q3gsSmT0++9fsxVpRUVKKNd0wg5a/QTFCBqJsAlxsRg6R9/Tfti2U8vn87zp73wyo9z33hrhCa1BXRaba3rwX2z1BVUVVbC4/EgOSkJfS+4EF1798WN146CTqNBpc2GcosVXdNS0CoiBA6bFRanq9Ze57Hn4eudGzp1xJ/f/RB7wVWjNqOB7pk/dtstkyddMfydPVkHTzr8z3EcNDotKgoLUHj4EDiBh1THPfOac22XmoJ3vv7m2THTHtkIXtClxMbWGeouRYFZI+Girp3h8Xp9G+f4aZdQvU69rLIST99x29j+vRpm9vs/GzcN7HXVdb87FRXpqamQvbXcU+c5gAGuygp4nU5wtYUzB0AQ4CksgsDzFU63G1aHk2azE1IPKNADQE1PMD4mCsv//Gva4p/93zM/mcmPPr7kg5dfGGFu0QJase57wkeqzFkssFgsiAgLx8K338AHzz6NIHMQMg/sR4RGRGx4ONy1hIA/qiqjVbs2+GfJ0oTLb7x5s8pYg9wzf/TWm++69YoRc/ccPHRKYa41GFGSl4ecfXug0WjrDHPfeahom5KCH//6Z/TXP//6+Obde7pPffHVNR5Z0afE1R7qHM/BLSvo1LoVBvfpBavTCafH47d9NaFeUlGB6TffOO7CBpootyszc8BF112/sspqRVJSgv/Z7wzgeB6cIMJVWQnZ6azuqdeC4+D2eOCV5TonRRJCTh0F+jmupmeeHBeLpav/mvb50uVnFOY1bn3ksSWzXpk93Nimjd8lbcerCRqb1QJ7YSHiUlOREBUFTvag3GqFW5ZPaWtWAFBlBa3atsHGLdvaXnbt2C0et7tBwvyJ22+5c8rVV8zZk50N5SR14zmOg0avR1leDvIzMyBKGggnudhRVBXtUpOxesu2no+8OefIcPjujMwuEx6fudbl9RpSYmMg+wlGDhwUVYXNakWXVi1wee+esDudcNXVU7fZUVRegWk3Thg3oHfPL0738zgVm3bu7N973I2rPCpDQkJ8rUvaaqrHyW43FI/nJFvrEELqEwX6OaxmwlVqQjyW//nXQ18u/+mswrzGtOdfWDrr+ReGaRPiERQaiiCj8aSPYJMJRr0eUFXf/WeOP+UgBwBZlhHXtjW27drT9sKbbtvgUZSI+jiX471471233jZy+Lt7Dh46aZiDMUhaHSpLSlCQsR+CKIA/WZgrCtqlpmD97n09Jz793JrjL4gyDx/udMPjM9d6ZEWbFB3tP9Q5DorCUGm1oV1aKi7t0c1X8KesDBUVFaisrERVle9RWVkJu9WKw3l5OJyTg0lXjby+VXzsojP+gOqwL/vgpX1GT1hZZbMhMSnJb9uB/0Ld63BU99xpOJ2QxkD7oZ+japamJcbE4LvfVz606OdfT+ue+clMe/7FZaUW66QJY66bby04tVLcjDEIkgZaHtBrtZBPYRkXgy8EW7dtjW0bN7XqN+GW9W6Px3iWzffr3Sceu2XSFcM++umvf8AJgi/Ma2sjx0HS6VCWcwgFhw9Bq9NDVtU6Z78rqoK2qSlYs2tP9wlPPv2vLMt+kyzz0OGO1z0yY+1HTz/RJzE60l1SWeXv7aEwhrIqCzqkpcLjlZFbZYEoiFBlGVpJhArfJjV6SQOvokBlDEFGA+a+8drol9+es+in1X9ee0YfVB227N7dv/8tk1b+89lHl6UnxKPMZgcn+hla5zjwggBVUeB1OSEIou+kTn9lHyHkFFGgn4NUVYVOq0VqfDze+WrxI0tWrX6xId7nq+9/mN6yXdv5jpLS2tdkV6upU+4Fh2iNgPSIsDp37wIAlTEIjCGlQwds/OffdhfddNs6l8djqs9zqPHWow/dNHn8mI+3bNoCWVWhqWN2OsdxAAcIogaW8jKosheiyQTZ5fI7+50xBsaADmnp+Gfnrh63P/2/fz1eT50/WzsPZHS5fsZT6z55bmbv1LhY957sQxD5Y1+bg+8zKq+yoG1iAnp0j4YmKRVQZMDj8dsWqCoQHYdOycnXXXD1qK/25uaPPuUP6RRt2bW7f5/RE1b+/emHl4Wnp6MkI8v/gRwHpqrw2mzgTGaIGglMaaRd/Ag5D1GgN3Mep/OYPyuyjMiQYIRFx+KZ+R9OX7Jq9QsN8b4d09P++nz2K6M6/L+9+46Oqnj7AP69dVt2UyEhhJZCCL03ERARQREriF2xKzbsvfzsoiiKoig2VGwoKIqIWFB6J6RASO+9bL9l3j82QcRkE0jyEtbnc84ekOzeOzcn5ntn7swzU6cCNbW+oGgKY4AkARYL6lL2Y8fmjahzuyH4mbnMGIPA8ejaOwG///rbmDNvuPXn9uqZv/vUY1dce8G5yzLSD0DRNL+TsHxhzkF1OcGJImSTCXxdrd/a7DzPI75bV/y6fefpNz3/0k9aEz3zox3Iyh501aNPbXnnsQenxsV0LT6Um/fv9vgaBZeqwp6VCYvdjtAevXzbzjYxWU6sqUSt3Y5Hb77x4g9Wr3H8vHHTNS1pz7HYe+DAaeOvuf7XdZ98NLVTj26eioqSRt/HcRw4UYTidoExDZI5yP/PEiHkuNEz9A4uvGvM4VdY1xhExSegS2Qk5j77wqvLvlvdLmF+3mkT3//0qUfHB5vNZay4BKrTCa+fl+rxQHe5kbLuZ/z5yzpfD7iZjVwYY+iWmICPPvv8oolXXbfR4/G0eZgbTSbHb++9PeTaC89blnrgYPNhzvOAIMJdVwuvw9Hss1+dMQi8gH69E/DhD2tuvP7p59a1NMwbpGVmDjrn9rtT9mVmDe4X18tv/XRBllFXUozStP3QVA28JEHTNOi6/o+Xt7oanbrG4NKrr8ba9evm3H/j9fcfS5taavf+lIkjpp/7l9ftRkL37tDUJtrOceDge6auuF2H/40Q0rYo0Du47kn90D2pH7r18b16nj4Vr6347oql36y8oz3ON23cKR8vvOeOOTV1dhRXVoLxPJiu+32Jooja6iocSkuF0WTy7Zvtp0er6zoS+vbB1s1b+111/8PtMoFLkiT3hveXjJwwasTu1NR06LreZJhz4A63y1NbDc3jblGYS4KAXr3j8daXKy5/+t33Fx9vW2tqa0OveeypLbsOHhrat1cvaH5KzkomE9y1tSjPSPN97xsrE6vrMJpMAC8AkoRnH3zgxRmTJs473vb5k5VfMGzMOeevrbQ7Edmz6drv4DjwogS1PtSb2/SGEHLsKNA7uANbN+HA1k1I3/Qn1IJs/PXJBz3mPffCR+1xrhkTJ3z48l1zrywsLfNV7mpulnr98HTD7mFGsxncUfusH40xht5xsfhr87bESdfetKWNLwEAYDaZHT8vfmPE8P59U1LSD4Dn+SZns/s2oVGg6TpUtwsuux284D9sGsI8vk9vLP7okytuefq5j1vbZq/HI1/58BObNiWnDO/To7vf5YKS2QyvvQ7lB+tDXT4q1OvLsXrdbqC2DqmZmTh/0sQF1194XruE+s7UtDOm3HDrL3XVNbwt2AZd05q8+QNj0FUVqsuFmjo7FNX/qAkhpOUo0Du4oOBgBNls6Nw1GuaQEMx54JFv2+M8MyaO/+DVebddXVxegapae4vCnGkamKq2eDtVVdMwMCEOm/fuTxp39Q1bHU5n2w+zG42O35e+PfLUwQOSU9IP+q1AxnEcPB4PVFVFQmwcDJIITfe3ZejftfIH9U7Aoo8+vfLmp55ps5srj9cjX/fUM5vXbNw8I8hsgq4o0Bp7eb3gRBGuqkqUpOyD6vVAaKrHKwpwOF3YtnsPJg4euOD8cWPubKv2Hml3Ssqk4RfO3ipZbbw1OBii0dj4y2QCbzCA4zmMGzIQNou50SI7hJBjR4HewYWGRyA4PAKdhwzBwuVfXXMgv2BwW5/jojNOX/rmffOuKSwtQ1ULa2pzHAddVaCrKpqs230ETdMxIC4Wv+/eN/T0G2/ZDqbb2qDp/2Axmx2/vvf2yOGD+qfsTj8IUfQf5l6vFx6PG8NGjkTPXj3h8Xjhb12VXr/uv09CPBYs//Kauc+++GFbXwMA4YNV388WYrohKKITzGHhjb9CwxEcHQNRlqE47IfXfh9Ns9sRExWF8849F3F9+2PRW2++9uDNN7bLM/UzR49cDZ5jgtEI0WDw+9IFERNGDEeXiHC4PJ72aA4h/zn0IKuDK8jNRZDJBLvdzj2+cNHLbX38cyaM/+DVu267tqisHFV2u9+Z6Ufy7crGteiWUNN09I3tgb+SU4bPeuDRTbqmtfnPnSSKlWveXDhu9NDBqWlp6c32zL2KAq+iYOSYsYiNj0dFSTFEg4ymbk50xiDxAnrHx2HR519dde8rC5e29TUAwMQRw79ZuvS9qxSPCmNomN917wAHzeuBJSIcCO8EweGAWlcHTVH+rthmtyM6sjOik/oAqgrYQnHTpZe8uHbNGnVHVk6b/Tzdc82VN9x92ewlqt0BFWi2wiDTddS5nFA1DSINuRPSJqiH3sE5BBFctx5487PPr62urQ1ty2OfO3H8R6/dNfeagpJSX5i3uLIbQ0srhPgqp/XA5v2pwy556PGN7RHmJpOpYtMXnwwZN7B/alr6gSa38ATqN5dRVSheL/om9kZcQjzsdXX1AdR4sDDGIPI8+vbpjdc+WX7V3Gdf/KCtrwEAxg8b+s3PK7+5IKpXL8VTVQnN6218yP3w0LsHksmE5OQUrP7oYyRv3AhB4GGwWg8HKicI8Hi98JSWwlNZCa20CLog4JNlH73y6O1z722Ldj91683XXn/e9CWpmVnN1sU/0nFsH08I8YMCvYMbMmggokJsWP7Tzw+25XHPHn/qR6/fc+dVJRWVqK5r2TNzAGBgLS72pWka+sfFYlNK6tCLH3x8s6Io/teyHQeJ46p/X75s2LCxY3JTDmX61j038V6O46AoCtweD5J6J6BH1y6+MGesyWVUDUvT4hN7Y9Hyr66486UFH7T1NQDA+MGDVvy+euUFYng4PFmZ4FowUsIAyJGR2J2aho+WLcPOLZuxd9NGqF4vDLbgRnvJSm0tesbGInHseDz16ivzr5954d2tafcNF13w3LzLLl66/1AWlGMIc0JI26NA7+B+37Ubb7y5eGJmTm5sWx1z2iljP15w121XlVRU1A+zt+DHQGfQVQVgDE1H5t80TUO/Xr2wcX/qsNkPPb65ucppxyMiNKxsx4+rho4YPiSnNP0gAD/bs3KAqmrQNQ1Jib3RLTrat/95MzPyJUHAwMTeWPzJ8ivmPts+qwsmDBn85e9rVl8IiwWevFywFoQi0/X6kQgOVosF0dHR6NylC8qKi/DbD99D9XhgsNr+dX2cKMLjcgGFOfBk5+DiM894ZfbUKXcdT7unjjvl/fuvvOyhA9k5za7xJ4S0Pwr0Di5p8GBs3LPv/LY63rmnT1r66r13XllUVtai2ewcx4PjeeiaAl3XWlQQRNM09IuLxZbU9KEz739ks9frbfOeuUmWKzb9tHrIgFPGZhXtTwUD53dpmq7q8Hi86Na9G3p06waHywVN8x/moigiJrE3Xvlk+ZU3/++5dgnzUUl9vl7z7dezENEJjrz85veMrw9oXmyojf73Nei6jtCwcJQVl/hC3euFISgIjDXyPJvn4fF6cTA3DzPPmPTqbbNnHlOozz5r6juLHrh7TlllJRxuN4U5IR0ABXoHJ1VWiLuS989si2OdNnjQBy/edvO1WfkFyC8uhtfrgdPphMvlgsvlgtPphMPhgNPlgt1u91X44nxbYYL39Qab0zDM/te+/cNmPfjoZlVV27xnHmQyle347pth8QP6FVQm7wcvin7vMzRNA2MMIaHBsFgs8Hg8vrXzTXymYRc7IbY3Pvzsy0vuXvB6e8xmx9h+fb/8c/3PFxk7dYL70CHffuLNBSNj4CUJvCQB+r9vSHRdR3BoKEpLirFl/c9gqgpjkLXR4Xffrm4a8opLcOm0qa/OueC8O1vS7gvPOP3dtx++/8aisnJU19Udw9wLQkh7olnuHdzLSz9MPJiT06W1xxk7ZPCGVR+8e42zqgpdGUO3mBhIggCdMV/vqv6Xu6brEHgBRkmExvMoOngAoZFR4CUJzVXg1jQNA2N74a/k/SMufujxje0R5sFWa/WGFZ8PTxo6JLc2Ja3ZZ82+CnAaQsNCYTQY4PV6m32/yPOwDOyPLxcvOvfq+x78tC3b32BM/35fr/l+1SwxJASe7GxwkgyozXyHmQ5OknzFexoJ88NvYwzWkFBUlpZg089rMer0yTBarXDX1f1reRvHcVA1DRl5eZg1+fTXeI7j3/36m1eaOvb5k09/Z+G9d91YWFKKqtpaGJsp8UsI+f9Dt9YdXJeI8LjWHkMQBLbwgXtmyJIEp8eDUKsVwVYrjEYTLGYzjCYTjAYDgiwWBFutCAsNhjkoCLv27kNZUaGvjGhzGEO/2F7YtD916MUPPb6pPcJc5LnKv776bNiAU8bmlqakgjVTnpUxBp0BVqsVRqOxyf27j3y/KAiwDByILxYvOW/WzXO/bcPmHzZm0IBvflr1zUXWmBi4s7OBZirT+XDgZUOz+7EfxhiswSEoKi7Er2t+hK5pMNpsf/fUOQ4MgNvthsfjG6nZn5GBSyaftuDSaVManf0++6ypb79+37wbC4pLUFlb2+IljoSQ/x8U6B3cjuT9w1t7jLuvvPylYWeeUV1dVASzQYYkCpAEHgZJgCwKMIgCDJIIWRRgM5vg9Xjx8XerkV1QAKvN6n/imK4DPI/gPonYmJwycubDj29uah/w1ggLDq7cturrof3698usS04BLwh+h9l9Ya7DZrPCZLFAbaYaGWMMAs8jpG9frFiy5JyLb739mza+BADA0KSk73//5qsLrDEx8GRmAs2EYsNWrgCDIMrNru/+J4aQ0DCUlhRj09o1vhrvDbPfGQMH382OzWaD1WqFyWxGRZ0dV51/3vzZZ0+778gjnTd50ruvzLv9psKSEt/cCwpzQjocGnLv4HKLSxJbe4yk+Lj3dv7yK4pLy5oMQU3XYTOZwADUOlxwexVE2v49S/pITNdhMBmBLl3x+ZtvTJz9wKO/tnR9+rGICA0tWf/V56MHDB+cU7JjJ4zWYL/vb+iZGw0GmIwGeFsY5rbBg7F0/iszrr33gZVt2f4GowcN/OnXzz4+RwoJgScrGxBF397mjTcKnCCA4zi4q6sgmUwtmcLQyGEYgkNDUVVejj9Xf48xU8+C0WaDu64WBlnGpZdcUj+fgDv8foPRiClXXPFS9NzbhVfee/+5cyaM/+z5uTdfX1BSimq7o2WrIggh/+8o0Ds4iyy16vl596jIrE4W04G01DQoTQw5MzCYDUZk5xei2uPBoLhYWM0m/2GuaTBYLBB7xuHLJYsnzr71tl9b004/Di1+4tEJAyZNKCj9Y8PhkGuKzhh0RUF4WChMJoOvTngzS9MEnkfwwAFYseS9dgvzoX2T1m789qupnCjAnp8H0RjUdD4z5pvoJwioKy+D6nLCYDn+sveMMYSGhaO0pBi/fb8KE86eDmNQELx2ByxW6+Fz/mPWvGzAfXNvfd5eW7tzzvRpawvLysAYINTvvkcI6Xgo0Du4zNzckNZ8PqFnj9xRo0ehvKQUehPBJggCQi1mPLjobSiCiLNGjURGTi7QRE+MaRqkoCCIUZF478VnJ153/8PtEuaRIcFZTz76yLD+iQk1WsYhgOcBP5un6LoOXtMRZLPCYjZBVbVm15mLvADzgAH49LXXzrnsznvaJcxH9O+/7vdVX5/JyRIqMjNhDA3z87iAgRNEQNVQW1IMt8MOo9mClnTPea7ppXu6riM0PBzFJcXYuPZHjD3jTMhmMzxOZ6OfkWtrUVJegbhuMWu9ioI6pxPBliC/+7UTQk4sCvQOrqrOYWjN523BId6IUacioqwQOPqXMQMgy75/dzlhMZngZvC7+5Wu65BNJohde+Cj+S+Mb68wjwoLy1+/euWwpNHjajyp+1BTUQGufiJXU+3SGUOIzQqDQYai+B9m1xmDJIowDxiIb957b0Z7hXnfuNjNG39de4YIoCI93f8+4IyB50UIsoyq/FzYKytgtvl/vACgfmUCj6hOEQg2GVFQWtZo+duGJW3lJaXY/tt6jDjtdBhMJnhcrn+HOsdB13XU2O3wKsp/Ymmab5CCgyzLvpGIIx5FEHIyoEDv4KLDwxxFpaXH/fmqygpD5eY/UFFWDu3wDGdA13312N0eL2zBwYhP7O3bN9zPcihdZ7AYjeC79cTyV1+eeNW9D7RLmMd0iTq07Yfvx0QNHlalZR2CqqrgBQFaIzcaDb90DQYZYaEhMJtNYLoOoyz//Z762wAODTcEvglhIbGx+PLtxefOuql9ZrObTaaydcs+nCZaLKjcuw+CJIE1NcJQP8wuiCIq83LgstdBPOIamqTrCLEGISI0BE8vWfrW5JHDV00eMfzHfZlZTZyGwRJsQ01FBTJ37UDckOGQjSZ43Y2E+n8IYwyiJIDpGkpKSxFqs0KSJCiK8p/+vpCTS+Dfdp/kIiIinK35fFp2TnzywUPIKivHgaJi36ugGAVV1aj1qlj4+dfIyssDLGa/x2GMwWiQwHfrhW+WvDXxkrvuaZcwD5LlQw/feP2wqPj4MmQehM5xTQ6bs/peNs8BHkUBJwi+AjluN+qczsMvu9MFu9NV/3ffv4VERODV19+a3l5hbjVbSv78/JOhXRLiqh3pByA0s167YT19VUEe7OVlECSp2SDRFQUIDkPn8HB88uNPy79eu+6mO154efWugxmDk3r1aHqZHmMwWa1w1dYgd99u6JoG2eh/zkQg84W5BF3XoXi9yM4vQOrBDMiSBEmS/rPfF3LyoR56B2cLCsprzeeLy8qjf968rX9Sv77J1RXlvlnTHg8irFYEmc0oqalBiC0Y8DfRiTEYLWYgIhzvv/Dc+DkPPNQuYd49snPW/bfcNCzUZqupzslBSFBQk5PmGWMwGAyQBCN279yBMrsDPM8jIsiCQ4XFyC+vhCyJUDQdNpMRPMehxumEKPDoFROD1z/76rT5Sz/4rj2uw2w0lm7+5ssRfYcMzK88mAE5yAo0WdCGgeMFiLKMipwC2CvKYbBYoDUTIkxRENSrF+Csw11PPv1DcsahaQDgVRTu8ocf3/rh00+MHD+o/+69Bw41cQAGgyUIztoa5OzbjR4DBv9ne+qiKMHj9aLSYQcDEGQxI7ewEOA4JMXHgTHm20XuRDeUkGZQD72Ds5iM+1t7jLzCgtvPO3c6xg3oj7PHnYILpkxBVHgYoCrgwPldz63rDJwsA12i8ckbb54254GHfm9texpj5LnslR9/OOyWRx6pmTp1KkwmE1xud6PvZYxBlmXwHMPelFQUlpVD1xncHg8URfH10B1H99CdqK6zo3NYGDbt3jNx/tIP1rfHdZgNhrL1n3w4vO/wIXll6elgfnZ/A3zPzMHzcFSUQ3E6IUrND7MzVYW5dwLgcmHsmFN+XPfnn9OO/LrX45GufuSJzTvTDw7qF9/Lb0/dYLbAWVuNnP9oT10QBIDj4HHYwTQNoiiC4zhYzGbk5OfjQFYWTEYjhP/YTQ45OVGgd3AOlyu5tcf48NtV13+x5N2utrBQbNi0CT+uX4+comJYLBbwvJ8lYLoOgywDXbtj6YIFp14+7952CcFQkzH7j59+HDF48uQqlJcjODQUHNBosDDGIEkSjCYzfvtjA/bv34+Q4BBIoghJFCEIAmRJgtEgwyj7XgZZgixJSIrthdTM7IkLPlzWLiMMZoOhfM3XXwweNXF8Xtn+/b4wb7JgPMDxInhRhL20CK6qCgiy3PQ2rroOjuNg6tQJ5qQBUGprMeaMM3/ctHff1Mbe7/F4DDPvfWjz1pT0wf1ie0Hz8+ze11P/Z6gH+mblHHxh7nK74XY6IIoixCOq8P0d6gXIyc+H2Wz+z41ckJMPBXoHl9C92762OM5z73+8tuewYejVsyeKKyogN1NCtCHMu/Xvhy/feWvytfPu/aMt2nE0q9mcu+7br4eMmHxmuZabC6/DAa/b3eiuYw1hLssi9u1PxoHMTFhMzf+iZYyhe5cu2J+RcdoL7y79tT16oEajsW77d9+MOHXypMKS5P31G9s01S4GTuDBCwLsZaVw19Y2+4xdlmWoioL1a37C+pUrcNrpU1Zv3pfcaJg3cLvdxtn3P7xle1r68D69ekJv6rHK0aGua0CA99Q5QYCqKKitqQHTGQRB+Nf1CoIAWZaRmnEIuQWFsFCokw6OAr2De+aRBw4NTEw82NrjHMjN7XvW1Om/1tTZ5WF9k3xLwJr4ha3rOkKtVvSNi8OC1988b9aNt/zc2vM3ga1f/sm4oVPOqvYeSPOtcW5iedThnrnBgB179uFARgZsViv4+uVFTdF1Hd2iorA/M3Pcy+9/1C4jDADsnzzz5MikYYOzPQcONhPm9T1zQYC9tAjumirfbPZmgkLiOJjCwrBq7c8487wLV/21Z+9ZLWmYqijyVQ8/8de21LQhiT17NL2O/KhQhx64w++6zuDxeOByOnwV+Zr4GWqYdClLElIOHqRQJx0eBXoHt3PbdsTFdP2yLY71459/TbzywUf270pNnxrduROSYntBlmXYLBYgNASyJCE0OBh942MhSZL1+Q+XzZ/3wvx2qWluNMjKK/fOGz18zOg8FOeDcXyTofZ3z1zG7r37kJ6RgaCgoGbriWu6jh5du2B3evppT735zob26pl/++r8EWP7JaVVHcgAa6aSHcdx4HkB9vJSuKsrIcjN71amKgr47t2geb34bcvW71TgnGNpo+L1yhff+9CmrSlpQ/r07On/mbolCM6aGjhT9sHhdMCr6r7HHw1vwd+j8Yyxw0HIWP3iwPqd+5p7/Wv05ehzHPH3v5vH/vH+o/9+uA3/uqy/26ioKixmE0QOcHs8/9p9rrHPSpJEoU5OChToHVx5aSnGDx/SZqFaXlkZ//jCN358dOGiP19d9uk1itc7pKKmJtJZWGRVNS0uMzd34lOL331p3osvZ36z7pe72+q8R5IkSf3kf0+MHt03aWtm+oH6X/JNvJkBoihC4nkUV1Qgr7gEFpOp0SHSI2mahl5duyL5YMbE55YsXa82VTO9NXi+7osXnx01fezotNTsHIDz/78Tx3HgeAHO6gp4amsgSDKaqwCnKgqi42LhLK/AmLOm/7gnNW368TTV5XYbLnvosS27DmQMSerVXKhbUFZcDK6mAl07R8Dl9UJTVWi6Dl3ToOsadF33/Xf9S9U06JoGgedb9OLrX/oRx/Adu/5PTfOV8a3f0rfhfIfPqf39OU07oj3a0W1jvs9pOlRNRZDZjKjwMHAc32TlxH9/SyjUycmBlq11cKcOHYopEydsf++rb/cmHzo0sK2Ou2n3nlM27d5ziigI+HPLVi8nCB6v12N1OF1tdYpGCaKoLXn0wbFDe8fv/H1vMqL7JDX5XsYYeEmAIEsozS1End0OS5AFXkX1H+a6jp4xXZF66ND41z5c1i7PzMFxtWveXDhqwoB+absPHADH8/5HzTkOHM/D63JCU1X/FePqKYqKuD6xUDUNp5193tptKalntKbJHo9HuvKRJ7Z88uxTI8YNGrCnvLoGYmOjHIzBrevobLNh+thRcLjd4MAdcRPle+Zsrl8OKPACzGYTREFAaXExwDU+ofFIHMdB03WE2KzgAJgtZl+teIGHbrWAMUAUBZgNsm9Ug+MQZDYdvhGwWcyHq9cFWSwQBQFWsxkc53v2reusfsInhyCzAXx9lUGjLNfvAa8eUyA3hDoApBz0PQHr1iUSHi3wHkmQkxcFegd3MCcXCfFxuOaCc1+4+6VXPmnr46uahuq6OhlAC8qStY4sy9rSxx8eMzA+dlt6Tq7/cqL1PXMeQElJKVxuLyRRanYzN13XERvTFd//uWnCwo8++a3xQdjWsdps9lULXhoxtl/Sgf0ZvnXe/rPcNwKhuF3QNa3RsqxHU1QVcT26QVE1jJl58V87UlLHtkXbPR6PdNlDj2358qVnx04cOmRnYVlZk4863IoCWZIQHBQEANCZDl+9Pd/fTQYDGBh0ncFsMkLXddTV1f690Ys/9c+uZVkGA4PM8fXH9VX+4+C7MZMlCagfSjcaDPXD/Do4jgerb49RlqEzBqNBBljDMf6+qTAaJF+T6o+pKMcW5n83+Z+hznQNsbFxUDhAqi8EFIhzDsjJg4bcOzjOZEZuZTVmzpj+aYjNln+i23O8BEHQP3zy0TFj+iVtS8tuJszBwIs8BElEQcYBVJeWQDYamz2HpulI6N4d6dk5Y1/7aFm7hDkH2FcvenX4xLGjDuw9cLDR2fj/eH99z1x1u6F6m39mCwCqqiI2pis8qoYxF12yccf+lDYJ8wYej8cw4/a7d2QUFsV3iewMqb4iWmOvhufZvuvk629OfPMAGgrq8nz98DXHwWQywWQ2+/709zKbYTQawfM8BF444rh/n0Oon4/A1ffKG76ffP37eV7w/Xv954Ajj8HXf10AwP19TJ6HxWyGKIotHnI/0j+H3zOQk58PXdPhdrsPLy0k5EShHnoHV1CQD13TEN+zJx69+Yab7n5h/vcnuk3HShRFdcljD44d2jthW1pWjt8wZ4xBEEQIAo/cgwdQUVQIq83W7Dl0XUdij+7YuC9l6P0LXm+f4jdms+OnRa+OOKVvn/TklLTDk/KavHGof2buqa2G5nGDF5ufAKeoKmJ79YSi6xh12dWb9qSlj27La2gwYfjQFeE2a7UsG2AxmdrjFB0PY7BYLKiqqUFZWTmkFjz2aPww7HCPPD0jAzl5eZAFAZHR0TCaTIDd3sYNJ6RlqIfewfXt0QP9YmNhMxpx19VXrB6ZlLj2RLfpWBhkWVv29BOjh/XuvS01OwdCE1uyAn/X1BaNBhRnZ6GsuAiSwdh8TXNdR0L3bth1MGPEZQ8/vsnhcrX5jaosy47Pn39m5Pjhw9L2H8ps0bA5Bw6Kxw3F7WpZz1xREdu9GzyKwo2efcVf7RXml5x91lufv/D0hbIglNsdjsOz1QP9ZTabUV1Tg93J++HyeI470IH6n1VRhMjzcLlc1EMnHQL10Ds4b33nz+1yI8jpxsevvzYrcfLUCgDNJ8oJJoii9vHTj48Z1Tdpx197k2EzN70BjK/XI0OQZeSnp6GiuAgGoxF8M6OimqYhPrYnNu1PGXbDk89sVBRvm/9Mm4wm989L3hzRv0f31D1p6ZBbEub1z3iZqoDjm3+/pijo2qMbPHW1OOXK6/7auT9lTFu0/WiXTD/rjWXPPnXbrr37YDIZEdW5c9Nv5jhA16EdcQ08z4Ppum90WxB9G8RwqJ/QJsBkNjdZ5e9E4ThAEiWUVVZi9/4UaJoGk9HY6jay+nkAkiRBqi8Z25Gum/z3UKB3cD3iYg//nTGg99DBNZ+99Nx5l9z7YLtsLNJWBEHQ3nvsobEj+iRuS83Kbnw2dQPGIMkSBKMRGTu3o7KkGMGdOkPTNDA/e7OrqobE3j2w88DBoTc88fQmxdv2Yc4Jgrpi/nNjTxk8MPXP7TsREmwDmJ+NbOB73qyrSv3M95b0zBVE906A6vFizKVX/7UrLb1dwnzGxPFvvj7vjtuKy8pRUVODnkGWJt/LGIMkCOBlGZCDwRQFAIOqqBBEERwAxeWE0WYDmC/oXS4nMrOzwQDwLbju/y++x+c8CoqL2yzMCemIKNA7OPWIZTGM6eAysjD7nge+T83Jf/CpNxY9dwKb1iSL2ez68MlHTk3s3m1HanaO/6FNxgBJAq/pKM44iKLcXNhCQyDwAlR/Ya5pSOrVA9vT0ofc9PRzWzztEOaiKKrvPv7IKSP6Ju5KrR9mb25AlTEdHGNQ3G5fOdcjq7L8672+L0QnxEHzejFu5qUbdqWlt+kEuAYXnzV10dLHHpqbnZMLRRT93mD5tso1oKa6GnZVQ9Kw4XBWVgCMQXM4IJrN4HTAa6+D0WYD0wBJEuD0eJCZlQUNHMRWDGe3B8YYDLJMYU4CWsf6v478i2Aw/OO/NV2HVFOFJ5989Pmc3JzQD1d9f98JalqjZFl2rXvrtVGxUZH7ftmxC+HB/ie0caJvt7HCQxmoKS+DxWptduhS0zT0j4/Fn3v2Db/xqWc3qara5j/HkiSpHz/z5JghCfHbkw9loUtkZPNhDkDXVMhGA0RZQnNFYwQwWKxWlJeV46yrb9iwbX/KuLZq/5FmTZ2yeOHdd8wtKC5BZV0dQiMimnxvQ5hzHIf9BzNgstrQn+Oga5rv5osxME1rmPYOXVXBdEDjfF8zmUzQ69esd0QU5iSQUaB3cOyoDTU4AHp1DVR7NT544Zn7LUFB6pufLn/oxLTun4Kt1upvF7x46qikxORftu30P8yO+uXKDFCLi1BTVgLZEgR3k/uG+2i6jj69emJn+sGhtzz9fHuFufLJs0+NHp7UZ+eutHREhoX6fT/Hcb5iMYIIU3AoZH97y9fTdQZDaAggS5gycuznu1LT2iXMzz1twqIPnnxkblZePuocLv8rDAAYZBmKpiEnLx9OlxvhnSMDfuc1QgIFBfrJSOBRU1sH0ePGomefetgWZCl+/p33Fp7IJiX07Ll35aLXzundOTx3d9oBv2HO+ap+wOP1QHW74IUK8aiRiMbouo4+PXtgc3LK8Ov/9+xf7fHMXJYlddmzT48ekdR7Z3JGZrM3JTzPw2m3g+c4GIKC4HG7oSlKs+cRGAPieuPpe+bdtis1bVZbtf9IV547482Fd82dm5tfiIraOphkA/QmSuD+vcc8h8zcPDicjv/OcjZCAkTHmblCjgnP86hzOpGXmYVrzp3x+huPPDihW1RUzoloy+mjR7339NybhvTp1TM3PTsHoug/zDVNQ3V1FYYNH46u3brB5fagueFpTdeR2LMHtqelD7v+qWc2Kl5vm1e2EyVJ/eKFZ0eP6Z+0M/lQVrNhDo6D2+WCNSQYiQMHQXG74Kiugsfp8Pty2+tg6hSOLV8t7/Hoywva5UbsyvPPffnDZ5+8tbSiApV1dc0U8vFVOlMUBbn5BVAUBUYDPWsm5GRDPfSTGM/z8CgKkg8dwrDEhD++WPBS4jNLlr76/fpfb/r/OH90ZGT+fXOuuieha5fPSyqrkF1YBFEQoDUxma0hzGuqKjF0xEgMmXIm9JISKKr/Hq2qqujTJwl/bd3W9+rHntqsKkq7DLN/9PSTY0f377djT8YhX5g3E2i6qkLXdcT3HwBjdAz0mmoENVvyFOBMJiAsFDc88vgXbXgJh916xeXPvvHiMw/n7tmDsupqSLIBShObsTDGINbXaM/Nz4eqqDAajfA08+iDENLxUKCf5Lj6cpYZuXnoHRfvuemyS26eOHL4+8tWfvf47tS0Fu2ZfaxCgm0Vt1x26eLzJp/+vxBJ8Kz9ayNYfTuaiuaGMLdXV2HAkKEYcvpksDo7PG734bKejVFUFf0GDsDOPXsTpl5/c7uEuSgI6odPPTZ2ZFLi9v2HMv9eR80YmK43WqQEAESeQ7XXi19/+x18Q7HwZjBVRXzvBKxc8/MFe9MPjGzra7lx9qxn3nj/nUdcyftRWlHZ7Gx2WRLhcntQWl4Ot9sDs9F4XCVRCSEnHgV6gBBFEdW1tSgsr0BsTMzWORdecHadw37qXzt3zdmyZ9/5FdXVwa09R/euXXedOWbU52eMO2XxtEkTa7Lz8pB8wLfzVHP1zDVNQ3VNDQYPH44BE08DczqhNrNJhqKqGNwnEbv2JSecetV1O5wOh7W113A0nuP0N+67+5TBcb2270lLR5DZDEXToKhq/XN+LxSvF7qqQvF6oakymKZBV1VYQkIRldAbNVVVvprjzfTOGQNkixkWMPzvnfdebutrue2qK55euOjVR/WcXJSW+0qbepTGe9q+MPdtdpNbUAC9YSMUQshJiwI9gDQESmlFBQpLSzEkKXHD2EEDN3CacvfS79dMzy4oPK2iqmpkZl5+X5fb3ezxukVF1XXvErVDB/fH3Nkz1ylgG4yihFCrBXvTDkDXtWbLZzaEeV11FQYNH44Bp50O5nTA63JBkJueCKeqKgb36YOt+/YlnnbVdducbnebhzkArHjrjVPOvfzyrQXJyRjTKx4Cz4OBgem+XqrOGCRRgCzJ6KyqEAQevCBAVzXUVFYC4BAaHtGimeA6Y+icmIhl771/fo3D0bMtr+PG2bOeW7jgpUdZUTFqa2qbXQcuCgK8moasvHw4nU7YrFa41Sb2SCeEnBQo0ANQQ2+xrLIKTqcLQxJ6VSbF9vxoyvhTPzpj+FB8+uNPPXMKi5JSDmXGbdyzz2gxGbX64OWcXoW/5pyzKmK7xaRMHjUqPSoirPrxxUswICEO29PSkV1SClkSYQ0JA9ObCQCOg67rqK3yDbOPmDwFusMOxeN/1zFV0zAwKRHbdu5KPO2aG7a2V5i//8KzE8+97trNcDjRNTbO94+Hh865v//UNTBN85U/1TXAaoOzIA9eey1Ul71F1eAAQOA4aPm5WPzxslvb8jpuu+qK/y18df5jakEB6hxOCLKf+YKHty2VUGV3QnG7YGrBCgNCSMdHgR7AGoK9zuFEWWUVeFGGoqoItdmye8XEZOvgsD39IKz1xVwUTYPqdGH88GHo2bULRIFHVU0tyiurUFpZBa+i+H3effS5ma6juqIC/YcMRb9x48FcLiged5MByOBbmjYsqS+270lOmnDltVtc7RTmS196fvLVN13/OysugdKCZWa+BjJIJjPs+flIT94LSRTBMwGMtaxnawsPw4Zt22M37t5zeiua/g9XzjjnyYWvvfIEKypCTXUNRD/bzDZsfsMBAC9AlEQwVazfV5wQcrKjQP+PaAh3t8cDh8sFt9eLmro66JoGRVHAcRxUTYOuaSipqIDRICM6IgJGWT7mHaQ4joOua6itqsLgESPQb/xEMKcTXrfLb29Wry8as37r9t7T77h7q9vtDmrtdTfm8zdemzTr1tt/de7aCs5ig2g0/KuAT2MESQJnMuKLpV9jx65diPBTce1ojDF0juyMnzf8dWZr2n6kmy675H9vvfbyE3pJCaqqq5vdAU6SJDjsdXDU1EDgeAiC0OQkxgYcxwEtvIkjhJxYFOikTXH1w+w1lZXoO2gwhk+eAt3phOJuumcO+DZa6dsvAb/8uSnhzJtv26JpWruE+RdvvDZp5k03/KpmpMKrqjDyLbxZ0XUIZjPqcrIxuGc3jEhMOKYbHZ7nENmlC1b9vH7i8bX8n265eObzixa99piSmwe7y+WbmV8/I59jDJqmweN2w+10ghMlMADMaER5ZRXCgm0ICg72u85c132z/LtFRgJRkUBxEa1LJ6SDo0Anbad+AlxtVSWSBg1B4ugxYE4nFJf//cB1VUPfPgnYsnN34nm3z9uqaZr/AvDHaemz/5s889bbf1WzDsDt8fgNZKZpMAT57ik8bg8EkxHOykoU5+cjODQMssFwTAEXZDbD7nAZ9h3MmNLa6zjnjNN/XrT8iwdRWgBeFBEaEeEbYah/Pg6eh9FohM1mA9NUaAxwud1Iz8qC3e1CZHiY37b7NjIRERMfh8ffXHx3vw1/Vd15/z1L3QcPwO10trb5hJB2QoFO2gYHMF2D216HqNh4xI8aC+Zywut2Nx3mjIFjOqKSErF94+aEiVdfv8Ptdje9p2crLHn2qdOuufnG39S8LHjr1743+eSbMUjBwcjPzgZTFUR3ioDQKRQffLwMT7yxCH3i46G3YIj+SJIkwe1y9S4pLw9p7bXcfMF5s1M2/ILynDwIogCms8M3Jw1BLQg8OF6AyWiE1WhAaU0t1Pq19f4wxiCKIhK6dcVry7++4d0V387Him/RJSKs9OI513xvTk6GV9chdKDtUQkhPhTopNU4AJqmQ1EUdOs7AOFxCWBeL1RN/9ducYcxAIIAQ2ws9vywuuu4K+Zs9Xg87RLmS1987rRr7r3nN+VAOjya7lua1mQgM0gmEzhVRfL2rbBFdEK3EBvcubkY3a8P7pp5Abp06nTMw8+dOkXgl42bov74669WXculZ09bPvG0CZWZe/cizNTUBDjOtwc4zyM9Kxv709IwfPAg8AbJ76TGhqpxfeJi8cIHy65/cvE7bzd8bfZtd33nUNSpcy6f/VNdQTG8Hk+rroMQ0vYo0EmrcBwHVdfhcrpgMlsQ3r07PJUV0BQv4KcXp2kqrAnxyNu9O2z0zEu3eRQlpD3a9+V770y8aM51vzuT90BVFYhmC+BnVrdkNMFtt0MtKYQsCLAEWcE4Hl67Hf1HDse2vfvw0/ad6BHd5Zh66aVOF/LKK+Nbez2DBwx4P9fpgl2UwTVVmo4DFFVDdEgwnHouHKoGm8UMu5/Z/IwxCAKPvnG98PoXX1//5OJ33jn6PdfOu3dNcVbWtIfmv7jGkZIK1zGOUhBC2hcFOjluHOfbm9zl9mBA3yREBdtQfegQtCZ29GrAGIMlyAIUFeLcy69a5VaULu3Rvk9efXniRXOu/13LOgDV4wEvNVNsxWiE1+FAefYhBMkyRPnv5+SM4wBJhi3Yho++XnG8TWrVEjxRFJGak5txcOFbUDyNFwZSVQ1BFjPCbFZMHDIQYKzZcq56fc88KSEeL3/6xbUPv/HWv8K8wcOvv/ljfN9+02ZdddkaR2U5dF0HR3s8EdIhUKCT46brDA6PB8P798W44cNQ53DAo3hbUAKVwdSlC+bPXzB714GDp7RH25a9/ur0S+fO/Z3lZcHt7zm+r0GQjCa4amtQlnkAgiBCkI+a9MZxcBcWYsapp2DedXNg9yroFBoKrbniOvXE4FD8uX69/tvGjcd9TbagIO/jV1xSG2GzotpuP+qrHHSmw2gw4FBBIRyqhjBrEArKK/zPZmcMRkHAgN7xeOnDT697+I23ljTXjotvvvXHyqLCs2+69qofvHYH3J4WruMnhLQrCnRyXDjeV3TGyHTE2IKQlpwMt8cDvpllYEzT0KNrNLb+sj783lde+6w92vbxKy/OuGzubas9aSmAwdB8mJstcFVXoTg9BTzPQTRZGp085vEqMEk8/jf3Fry98nsYJAmiwKMlT9OliM7YZ7O2qivLGIPKGBQOUI+6afIVteNhtFjw8NvvYeq4sZh5+ml+b650xiCLIgbE9sL8Zcuvue/V15sN8wY3P/XMaoHnpl3/wH1r1LT0FpW+JYS0Lwp0csx0XYfH68XwIYPBeT2QRRFe1f9GK4dJEiLDwzBr1qUftEfbPn7p+RmXX3v1d67kfdDBIDVTOU0ym+F12FFyIBW6pkI2WZvs0fI8D01RwZnNeH3pUmTl5LbHJTSpzm6XH1/6YYhRFMud3oZeMYOuMwiigH49e+LsCadiT2Y2Zp95ht9iOYwxSIKAxPg4vPrp59fdv3BRi8O8wQ1PPP1jRNeYU86/5sqNnpRU2qWNkBOMAp20HOebBOd0uVBWUoLukZ3AeAF1TpfvgXozmKqhS2J3rPnt99F/7Nw9va2b9/aTj517+U3Xf1exdx/kICsEf5XTGINsNMFdW4uKnEwwpkM0GJudvW53ONApohNWvvUGXnrvffTu0RMAa7aXHhEWis07d9d8tOKbY72sw1RNw4BuMbHnTJmckZeVDZ7noWsarEEWFFZUQgdgkmXYzBborOk2NcxmH5iQgGeXvHfDIwsXvd3EW5s166a5a9YF2xImzJhewm+qH94/xsqChJC2QYFOWoQDoGs6XB4v+vfvj5LKKuxKSfP1ylv6C1wUUV1ViRvuvf/1tm7fQ9ddc/YNM8//wXkgA4qmw9BMmwTZAHd1NSrzcsE0DbLR2KKa7jzPo6qgAAOGD8MDXg9++fMvBIeENPu5yE7hyLIFZbT0epqy9+Ch6+5/+sm13SMioOg6QsLC4K6rw85vViI8xFf9zd+lM8Yg8Dz6xsfh5Y8/mdOaMAcAVVOtZ8y6dMe+P9aPShw4oGDnju0tuL0hhLQHCnTSLK5+57HaOjtEQUB0p04ICw6GdgzLlnTGENG9Ozb/sWFkXmnZ8LZs36sP3X/uHTPP/yEzIwOhnaLANxfmogRNU1FXVQGma5COseob4ziA6XCBw6e//wmrJQiyJPmNMVkS4XK7i323RscfeJ+u/mHmbd+tjhp4yphib3EJCquqkJyShpziYvSIjvL7WV3XIYkCBvZOwGuffXHtvfMXvHvcDTmCAnQ97YJZW1e88eroAQnxeZU1NS3egS4QMMZgkiWIkghVo6V85MShQCd++daZa6ips2PS2DGQZQMK8/PhVZVjqmXOMSDIYsbC996/vS3bt/ChB869beb5q7Ly8uD2Nr8bnGQwwFVTjbryMnCCCF7Qmu3VHo3jONiLSzAksTdWL3gJJRUVCLJY/N4UWM1m1DpdGSP37K0pragIbvnZ/m3eC/O/2PjLmvGK4sXOgxlQVRVmk8nvunjGGAyShKhu3TD/08/nPPrm220S5g2Kysujx8y+PPfSM8/opXHI9ij+ly4GEk1RIEoS7rrqCoRaLSitrDjRTSL/URTopEkcx0FnDFXVVTAZZIwYNhieqho4Pe5jLv1ps1lRbXeYNu7Zc15bte/ThQvOvWTmBavSNm6EzlizYS7KMjwOOyry8yBJEiSDEcpxVjxjPA+H0wnZaISq6SgsKoYsN91Lr6yqQmSXLp6BCfFr11VUzDyuk9bbtHvPqdfPueHVOy6ddacgiAg6eondUVRNg9ViQfeYrnjwhfnXvbNi5TFPgGuJ0UMGb0w6fbJDqa4G9P/OsDsnCqiuqkaV00m/UMkJRT9/pEmapsGpqrjorGmI69MHuTl58Hg8xz7piQFaSCg++271tJo6e5uUd138+CMXXHLrTasK/9gAj6LC4KdoDGMMRpMJHq8HlUWF0DUNYjM9aqB+y1k/X/MqCkJCQyFbrVjyzSqYjIamJ+IxoFNkZ8gm03oArQp0AHh35Xd35JSVmxY99tAtQbZg7fctWxtO4/uz/i+CICA2pitsFgseW/T2k++sWPlYa8/dmJ5do79Z8PCDF4y+cBYAHa15rHDyEYDKcvz2w/eocThOdGPIfxgFOvmXhi1QPV4vgswWdImIQOqhLLgcDvC8/z23G8V0dHYr+Hnb9glt0b4X7513yY03XPsNO3gQqubbLrQhnEVRhKppkGQZPM9DMpshG2QUHTwIV10tJEmCIEn1w+yNx7WmaTBIEmIiIxEa3RWcKELXdRx96RzHoaaqCjFdo3HnVZdD9Xp8gd5ElgWHhWJ8v6TVP/72e5tsRfrzxk03nHPLHZPnXHTBYyE26zc9oqOdfeLjIMkyenbtgtiePZBeUMit2bXn7Dc+/ezhHftTR7f6pI0Y0jdpxXmTJl5YVFYGlJdAcTpbtL98oJDNZhQXFkHXffsEEHKiUKCTf2MMOgOMQVYMGjQApoMZYLruv0CLH6IsI8hkxKHMrBGtbdrsKZMX3XvDnOV5yclgHO/bBpXnD6+Brigvg6ppcLpc4DhAKiuDYDTiUFYWQo0GmCOjoLma3gJU0zR0Cg2FITwMTz393FudorrsfOmZJ5aYXS54GpnwpOsM0HVER4TD5bCDE0QIgtBoYIs8j2ETJ+RNGjP65182bjqjtd8LAEjPzIy9/8X5y6IjI0vX9un9R9+E+L111dU1H6xYafn0u9UDN+/eO/ZgTk73tjhXY/rGxW6644pLL9yXfhC1DgdAgUbICUOBTg7jOQ6arqOwtAzjBw1EncuJjAMHYOB5MP74Z2fbRAF1tbXBhSWlw1rTvvDQ0JLFLz4/V+EECBYrGNNhC7JCiBQODzGrihcSx0FRVISHBCMtLR0Hi4qR2C0GAseafdYcGRoKS7cY3HLXfQs+XPndTQAQGRpccM+Tj/3ADmbAe9TnG0YzvIoXmiDA5XSBaSoEQfzXuXTGEBXeCVeeNe2Vtgr0BoUlJZ0LS0ouWv37hosA4POC/LY8fFNyLjxj0tllpWU4mJmFuF49KdAJOYEo0AkAX5i7FQVujwchEREodLuRkZkNVW1+5nhzjLZg5GZl9qisrZVbc5xzJpz6gVfxIGXjXnCCnzbpOsLCQrE1Lw879iWjV48ekEUR0JpeZ65pGsKDbbB1jcZNd9674O3lX9zZ8LV7n39ptcESNP22h+9fre3cCY/aSP12joMsCHBrKqpr68DxjT9/V/bvxZQzJq3pufjtA9n5Bb2P4fI7lJguUTkP3HP3iNjQkKrqmhpMNJkRHxsL3eulMrCEnCAU6AQcB3hVFcXl5Xj8ujm496broNbW4YxBA9vkWa/Qqyd++uyLrq05Fs9xeGLuzV91GjQInUJDG38Txx/eGjXr4EH89McGSKIIa1CQbxZ8E8fWNA1hITYER0Xhurvvf+29r77519K62x99/Huz0TDj2hvmfCfmFcCjHRXqjEFTNYRGRKDa6YTH5UaQxQL9qK1a3aqGGKMRD18/Z971j//v+2P+RnQMOfPvu3voxXfeU4nyEt+/CALg9cJjtx/3oxlCSOtQoBNoOkOt3YHp48dhyuiR+GHVd6itrWt1z7xB186d8Oe2beGtOYbJZCpd8fuG7eKW7VDcrn99ned4KKqCqto6dI6KQrTFDKvFAoMk+l2frdY/Mw+OicZ18x5Y+N7X39zW1Huvu/eBVQVFRWc/9tjDP3CVlahzOv+xJzkD4HV70KNLFxRVVqG6thaSIOAfXXUGHMrNw7lTp6x+5cNlf6ZmZo07rm/ICRLVqVPOO/NfGDFm0MBKVpgHXdMOTzBkjFGYE3ICUaD/hzX8Eq6qqUVYWChEoxkPvPsBau0O/3XQj5HJZERpSWlIa47B8bzz0UVvw2G3g2+ibbrLiasuOB95pWWojeyEqPBw1Njrmjymb5g9GMFdo3HjPQ+95i/MGzz+ymurrWbzjLv+9+x3pto6OBxOSEd8ncEXbiLPQQ6ywhYcDL7++3y4nboOuUtXLF/0+sWDpk0vaPl34cQKtQZlPnLzDcPPufKaKjhq4SkpoQAnpAOhQP+P4jkOqqahprICfZKSEN+rJypqa+FVFJhNTe9QdjyMsgxJFFo9dh8REgKLLANHbNHKmC9EK6prcNmFF+CDL5bhqQceheZ0QFGbrlbmG2YPhTk8DNfeff/CpSu+bTbMG8x7+rlVOrhz7r5v3vd8ZhY8R40AuL1exERGQtF1ZGVnQ2qY+X7EpMLSVAd6h4cU3jrrousWffFVm1Ztaw9mScy7ZfasYbqmVdek7ENweDiFOSEdDAX6f5TGGDJy8zDzjNPx4h23otbhhFfxAk2WUjl+vbp0wefrfim7NSXluI/BdC3kpTtvlaxBQYrT+c9lZ6GhYVi57hdIJjPgcqOytgbhBkOTx1I1DZ2Cg2GO6Yrrbrn9mMK8wT1PP/sdr6nT77r7ztV8aRns3r8rzvE8D6fbDYMkoaK8HFv37IZRNvxjr3im6TBbzJg5ZdJ7qYcOjV2/Y9ecY23D/5dgqzVvzafLhiX2Taouzc+HwWiEepwV9ggh7YcC/T+Gq1+alltcglsum40rzj8XEATodsc/AqdN9eqJ3nkFNa05hNPpCokODT31lCmnr6/NzALqq7hZQ0MAVcP+1FSkl5QBTicEP8VvGmazW6KjccMd97z23nGEeYN5z734vQ5Mv/vZp1eb9u6Bw+44PO9A13UoqooBAwYgsnt3cIIANPTk6wva6JqGsGAb1nz79bVTZ17Sbf3mLW26lK0tWM2mjFVL3h47evqMMtirERoWBqWmBpqmHVMtf0JI+6NA/49pqGYVHR6KIXGx+H3bDtTW1EBsw2fmRzOmpqGgtCxX4Plj2qHtSAzAa8s+vfyUiePXV9gdEEURAs9j37YdKK+oREllJWRJ8luWVtU0hATbENQpHDfede+rS774qtUbxdzz3IvfW0NDzrnhxuu+1zIy4Xa7D4e6oqoQeB5x0dGQLBbfTPCjZsfrugY+LAy/rFwxZcTpU37enrx/cmvb1FaiIiLSb77wvDFdOneqgtsBb2n54ccdFOaEdDz0EOw/RNfr9zOP64Uh/frB63ZDcNgRZpBgE/l2e4V7PUjq3vVQeGhoVWvav2r9b5em7E0O79azB3hZhtPtwfaUNCi6DlMzW6Cq9T3zoG4xuO6ehxa+88VXd7SmLUe68b6HvnvhxZfPDYqKhKhp0BUFuqKAqSpUxYvqygqU5eehpqwUdocddvvfL6fTCXtGBmCQsfXbL8+YOHL4irZqV2uMHDhgy+JHHxxmkKSqvKIi3+hCe43gEELaBAX6f4SqabCazXArXrhUDbUuFwpqalGtaqjyKO36yrc7oZkt3thuMTtacw0eRTGcd9OtnwkuNw6kpGL5ypUwGGSYjcZml6aFB9vQJToat97z4IKWzGY/Vg8888K3X61YOSZk8DAYQ8P+foWEwRQWAWNwKASj2bdP+NHV5kQRjpxccEFW/PD+uxdePmP6c23dvmNx6vChH3741GOjw6xBjrzS0jZd8UAIaT805P4fwPMcmM6QVVAIpqmoqq5GkNnsNwTbEgMQXROF4CDLZgCtGlI+mJd/xoOvv/ncbTMvePBgTg44nvfbM/cqCnp06YJuPbrj8jvvXvjJDz+1eZgDQFy3rpt7DxyYB4MRxtCwRt/DgYOnpho6U/81ZM14Hp6yMiiajneffPShcyZN3HzrU88sKq+simmP9jYmyBLkuOr8GbcO65P4ocvlQnFFJSSRfkUQcrKg/1sDHMfzKK+owqmDB6JLZGc4XG6Yeyf8v4W5D0NYZCQuqqlZ+9OfGx9p7dFeWPLeA9v27Ol86yUXzw0OCXaJ9TPzj4x1juNgNBgwrEc/FBYXBj+y4LW3V6775eLWnrsxQ5OSftnw/uLJ5oTe0IoKDm8UczSO49FUPXyO48BxHKoqq1FZWoKzxo1dtXrJ4rXvfrnipSXLP5/bHu0+0jkTx3901zVXP2B3u4t27d2LuC6RtHMYIScZCvQAV15ZgZ79+2P4yBEwG02Apv1jPfT/Fy4oCIl9kjY8unhJUXFJaZfWHm/91u1z0nJyp5x7+qRnZk6e9FVEaEi5pHNARDQiO3WCBTp4no/65pffLl3+3eoHax2OiLa4jqOdMmTw2l+/+OxMyV6N2uxcWKK6AF7vcR+P5zkwADtTUtGrZ6z7rmuuvC0uOur1LfuSb/91y9Y51bV1prZqe5DFgnHDhiw/a/z4lwfGx27vHBaGHzZt9ru1LCGk46JAD0C+CnBAbV0dosNCIAsC9qekwet2n7hf1ExHTEICTh85fNkn3/1wb1scsrCkNOatT5e/tWLtuvmhNuu2Tp07p7s9ruJ1v/3RpbS0NLGqpnZUWWVl21bJOcLoQQN/3vDV8jM5WUJWaj469Yhts2PLkoTyqmrkFBYgpnPnA0Nnz5p7zXkznl75+4ZLUw4emr5j//7TvMdx48DzPGK7d9vdMzp6xX3XXr0ssVds1q6UFGQXFgEc366rHQgh7YsCPcBw9RXgKqurMHHsKEwcOxaO2lq43a76Id8Tg4EhIiwU991446K2CvQGJeXllpLy8olpmVkTN2ze0paHbtLQvn1/3vT9t1MgCCg7dAhiOzxr5jhfAJdXV8Ph9SCxe/fiWdPOfCXm6s6vfP/r7/Er1v82XhaEPpyuDyutrOxSVF7RXdc0AwNjPMdzOqCG2ax5MZGRxRabbXdIUNC+qWNHbwTH7c/IyUVkeDjyiotRXFEBkyRRr5yQkxwFeoBhjMHudGFEvyScOWkioDFwQRZYg4JOdNPA6ToGTpmcM23i+FU//vbHjBPdnuOVFNvrp1+XfzwVRiOqMjLBt/PEMY7jwHMc6hwOFFVVwyTL6BQamtE9JiZjWN++mDFmODIKitA1qkuYBbqh2u1BuMWMwuo6ZfPe3eWXTpuGzdl5yDmUgV4xXbHvwEEUlZWhuq4OPC+ApyAnJCBQoAcQDkBxRQVGJCVi0qiRcFZUwulwdJia20zXEW4y4oV5d952sgb60L5J6zas+GKqWZZQm5MDXhSgq/9/Eww5joOmabA7nbA7HCgpL0dxWTnsTieiwkMrgwUeZpcHEUFm6IIEl8eL0ooKFBYXo6yyElW1tdB0vc120iOEdBwU6AHEqXjR2WaFRdewd9cu2F3u9ivnerxSUtEvrmfu7MmTXlq+bn2bDr23t3FDh6z99duvzhQBlGVmwhgcDKZqzX6uvemMQdU0VNfZofMcqt0eCLqGGrsdmqYdd3U+QsjJhQI9ADDG4HS50SU6GhNGjYSjrhZeVUMnoD32WmkVpjPIwaFYPP+F+36ZPG12WXl5txPdppYYOWDAuj9WfnUmZ5BRlpoOgdZnE0I6GPqtdBJr2M/c4/UiLNiGQQnxsFmtMPjZaawjYIzBFB+H9//3xNnTb56790S3pzmjBg5c++e3X57JSTKqMrMhSNLfG60QQkgHQYF+EmOMQQeHsOBgDO6dAInnUVVWdqKb1SzGGLR9yTj7/Bn7Zn79zbtfrvvluhPdpqaMGjDg5w1ffHKmaDSiOjcfvChCa8U6c0IIaS8U6Ccxj8cDW0QExo0ZAx6AqqqQZYPfHcc6CqZpgKbji3cXXz/gjGnxyQczJp7oNh1tUJ/EX/769sspgiigMjsHotEIpp/4Z+aEENIYmup6EmOMged5GIxG38QnngcvCOB5vuO/JAmuqmqA47Bp2funjRk86NcT/f08Ur+42O9+/eLTyYLJhPLsnHZfmkYIIa1FgX4Sa3iGriiKb4MSxsBOkhcY89WZz8uHWZbx+9efTzrj1HHfnujvKQDMOH3Ssi3rfpoRGhqKiqwsCnNCyEmBAp2cUIIkIj0rC5LZjLUfLz3/hpkXPHMi2zPvisvuX7nkrSssYWGozM4FT6VQCSEnCep6kBNOliTYi4vBMYYHrrv2kf59+214fvE7iwtLSnr+f7UhMbZnyrSxY68/b9JpG+uqqsC5veAl8YRsZEMIIceDeuikQ+AFAbUOB9KysjBx1Kif1r27OPGqc895XpIkR3ue12CQ626ePeupbxfM79cvPnZjSmYmXB4P9cwJIScd6qGTDqOhpnhaZibG9+/rvfTsaQ8m9Oi+cGda+rxfNm25vqauLritzhVis1VOP23COxOGDlnQLz6uVOA4ZBcWoVd0dFudghBC/l9RoJMORxRFVNbV4VBeHjoFBxddcc70e6dPOPW5z39ad2FdXd2M9OycaRVVVcfche4cHu7qHt3lu9iYrmsvPXvaV6EhoTW11VU4kJMDQ2wv2jqUEHJSo0AnHRIH39ahNXV2eIqKEBURXhnfo/uSR2+8bsnyn37u9un3PyQldIsZVlFdM7y8ojzqUEGRzBgzRESEy+UVlR6e47w9oyK9Cb165nUKD9+enpu3e9ywofsGJsSW7EpOQWhQEDLz8yEyHQJtVEIICQAcYzTphxBCCDnZUdeEEEIICQAU6IQQQkgAoEAnhBBCAgAFOiGEEBIAKNAJIYSQAECBTgghhAQACnRCCCEkAFCgE0IIIQGAAp0QQggJABTohBBCSACgQCeEEEICAAU6IYQQEgAo0AkhhJAAQIFOCCGEBAAKdEIIISQAUKATQgghAYACnRBCCAkAFOiEEEJIAKBAJ4QQQgIABTohhBASACjQCSGEkABAgU4IIYQEAAp0QgghJABQoBNCCCEBgAKdEEIICQAU6IQQQkgAoEAnhBBCAgAFOiGEEBIAKNAJIYSQAECBTgghhAQACnRCCCEkAFCgE0IIIQGAAp0QQggJABTohBBCSACgQCeEEEICAAU6IYQQEgAo0AkhhJAAQIFOCCGEBAAKdEIIISQAUKATQgghAYACnRBCCAkAFOiEEEJIAKBAJ4QQQgIABTohhBASACjQCSGEkABAgU4IIYQEAAp0QgghJABQoBNCCCEBgAKdEEIICQAU6IQQQkgAoEAnhBBCAgAFOiGEEBIAKNAJIYSQAECBTgghhAQACnRCCCEkAFCgE0IIIQGAAp0QQggJABTohBBCSACgQCeEEEICAAU6IYQQEgAo0AkhhJAAQIFOCCGEBAAKdEIIISQAUKATQgghAYACnRBCCAkAFOiEEEJIAKBAJ4QQQgIABTohhBASACjQCSGEkABAgU4IIYQEAAp0QgghJABQoBNCCCEBgAKdEEIICQAU6IQQQkgAoEAnhBBCAgAFOiGEEBIAKNAJIYSQAECBTgghhAQACnRCCCEkAFCgE0IIIQGAAp0QQggJABTohBBCSACgQCeEEEICAAU6IYQQEgAo0AkhhJAAQIFOCCGEBAAKdEIIISQAUKATQgghAYACnRBCCAkAFOiEEEJIAKBAJ4QQQgIABTohhBASACjQCSGEkABAgU4IIYQEAAp0QgghJABQoBNCCCEBgAKdEEIICQAU6IQQQkgAoEAnhBBCAgAFOiGEEBIAKNAJIYSQAECBTgghhASA/wOe/TRLzzUPWgAAAABJRU5ErkJggg==;" vertex="1" parent="1">
          <mxGeometry x="620" width="100" height="100" as="geometry" />
        </mxCell>
        <mxCell id="VALxzCZvtoURqA-u829n-18" value="Search tool" style="rounded=0;whiteSpace=wrap;html=1;fillColor=#ffe6cc;strokeColor=#d79b00;" vertex="1" parent="1">
          <mxGeometry x="130" y="15" width="480" height="60" as="geometry" />
        </mxCell>
        <mxCell id="VALxzCZvtoURqA-u829n-19" value="Upper cell" style="text;html=1;strokeColor=none;fillColor=none;align=center;verticalAlign=middle;whiteSpace=wrap;rounded=0;" vertex="1" parent="1">
          <mxGeometry x="660" y="60" width="60" height="30" as="geometry" />
        </mxCell>
        <mxCell id="VALxzCZvtoURqA-u829n-20" value="" style="html=1;verticalLabelPosition=bottom;align=center;labelBackgroundColor=#ffffff;verticalAlign=top;strokeWidth=2;strokeColor=#0080F0;shadow=0;dashed=0;shape=mxgraph.ios7.icons.looking_glass;" vertex="1" parent="1">
          <mxGeometry x="150" y="30" width="30" height="30" as="geometry" />
        </mxCell>
        <mxCell id="VALxzCZvtoURqA-u829n-21" value="" style="rounded=0;whiteSpace=wrap;html=1;fillColor=#e1d5e7;strokeColor=#9673a6;" vertex="1" parent="1">
          <mxGeometry x="130" y="90" width="590" height="410" as="geometry" />
        </mxCell>
        <mxCell id="VALxzCZvtoURqA-u829n-22" value="Lower cell (Copyright etc.)" style="rounded=0;whiteSpace=wrap;html=1;fillColor=#d5e8d4;strokeColor=#82b366;" vertex="1" parent="1">
          <mxGeometry y="500" width="720" height="40" as="geometry" />
        </mxCell>
        <mxCell id="VALxzCZvtoURqA-u829n-23" value="List Cell" style="text;html=1;strokeColor=none;fillColor=none;align=center;verticalAlign=middle;whiteSpace=wrap;rounded=0;" vertex="1" parent="1">
          <mxGeometry x="130" y="470" width="60" height="30" as="geometry" />
        </mxCell>
        <mxCell id="VALxzCZvtoURqA-u829n-24" value="" style="rounded=0;whiteSpace=wrap;html=1;" vertex="1" parent="1">
          <mxGeometry x="130" y="90" width="590" height="60" as="geometry" />
        </mxCell>
        <mxCell id="VALxzCZvtoURqA-u829n-25" value="header cell" style="text;html=1;strokeColor=none;fillColor=none;align=center;verticalAlign=middle;whiteSpace=wrap;rounded=0;" vertex="1" parent="1">
          <mxGeometry x="650" y="120" width="80" height="40" as="geometry" />
        </mxCell>
        <mxCell id="VALxzCZvtoURqA-u829n-26" value="&lt;font size=&quot;1&quot; style=&quot;&quot;&gt;&lt;b style=&quot;font-size: 19px;&quot;&gt;Home&lt;/b&gt;&lt;/font&gt;" style="text;html=1;strokeColor=none;fillColor=none;align=center;verticalAlign=middle;whiteSpace=wrap;rounded=0;" vertex="1" parent="1">
          <mxGeometry x="395" y="105" width="60" height="30" as="geometry" />
        </mxCell>
        <mxCell id="VALxzCZvtoURqA-u829n-27" value="" style="sketch=0;pointerEvents=1;shadow=0;dashed=0;html=1;strokeColor=none;fillColor=#505050;labelPosition=center;verticalLabelPosition=bottom;verticalAlign=top;outlineConnect=0;align=center;shape=mxgraph.office.concepts.home;" vertex="1" parent="1">
          <mxGeometry x="354.5" y="105" width="31" height="30" as="geometry" />
        </mxCell>
        <mxCell id="VALxzCZvtoURqA-u829n-28" value="" style="sketch=0;pointerEvents=1;shadow=0;dashed=0;html=1;strokeColor=none;fillColor=#505050;labelPosition=center;verticalLabelPosition=bottom;verticalAlign=top;outlineConnect=0;align=center;shape=mxgraph.office.concepts.home;" vertex="1" parent="1">
          <mxGeometry x="10" y="105" width="31" height="30" as="geometry" />
        </mxCell>
        <mxCell id="VALxzCZvtoURqA-u829n-29" value="&lt;font size=&quot;1&quot; style=&quot;&quot;&gt;&lt;b style=&quot;font-size: 19px;&quot;&gt;Home&lt;/b&gt;&lt;/font&gt;" style="text;html=1;strokeColor=none;fillColor=none;align=center;verticalAlign=middle;whiteSpace=wrap;rounded=0;" vertex="1" parent="1">
          <mxGeometry x="50" y="105" width="60" height="30" as="geometry" />
        </mxCell>
        <mxCell id="VALxzCZvtoURqA-u829n-30" value="" style="rounded=0;whiteSpace=wrap;html=1;" vertex="1" parent="1">
          <mxGeometry x="130" y="150" width="590" height="140" as="geometry" />
        </mxCell>
        <mxCell id="VALxzCZvtoURqA-u829n-31" value="TootCell" style="text;html=1;align=center;verticalAlign=middle;whiteSpace=wrap;rounded=0;" vertex="1" parent="1">
          <mxGeometry x="660" y="260" width="60" height="30" as="geometry" />
        </mxCell>
        <mxCell id="VALxzCZvtoURqA-u829n-32" value="" style="shape=image;html=1;verticalAlign=top;verticalLabelPosition=bottom;labelBackgroundColor=#ffffff;imageAspect=0;aspect=fixed;image=https://cdn1.iconfinder.com/data/icons/ui-essential-17/32/UI_Essential_Outline_1_essential-app-ui-avatar-profile-user-account-128.png" vertex="1" parent="1">
          <mxGeometry x="135" y="153" width="64" height="64" as="geometry" />
        </mxCell>
        <mxCell id="VALxzCZvtoURqA-u829n-33" value="@User1" style="text;html=1;strokeColor=none;fillColor=none;align=center;verticalAlign=middle;whiteSpace=wrap;rounded=0;" vertex="1" parent="1">
          <mxGeometry x="210" y="160" width="60" height="30" as="geometry" />
        </mxCell>
        <mxCell id="VALxzCZvtoURqA-u829n-35" value="Text" style="rounded=1;whiteSpace=wrap;html=1;fillColor=#f5f5f5;strokeColor=#666666;fontColor=#333333;" vertex="1" parent="1">
          <mxGeometry x="210" y="190" width="500" height="60" as="geometry" />
        </mxCell>
        <mxCell id="VALxzCZvtoURqA-u829n-36" value="" style="shape=image;html=1;verticalAlign=top;verticalLabelPosition=bottom;labelBackgroundColor=#ffffff;imageAspect=0;aspect=fixed;image=https://cdn3.iconfinder.com/data/icons/lynx/22x22/apps/gnome-session-reboot.png" vertex="1" parent="1">
          <mxGeometry x="354.5" y="259" width="22" height="22" as="geometry" />
        </mxCell>
        <mxCell id="VALxzCZvtoURqA-u829n-38" value="Num retoot" style="rounded=0;whiteSpace=wrap;html=1;fillColor=#f8cecc;strokeColor=#b85450;" vertex="1" parent="1">
          <mxGeometry x="386" y="256" width="64" height="30" as="geometry" />
        </mxCell>
        <mxCell id="VALxzCZvtoURqA-u829n-39" value="Num likes" style="rounded=0;whiteSpace=wrap;html=1;fillColor=#f8cecc;strokeColor=#b85450;" vertex="1" parent="1">
          <mxGeometry x="260" y="256" width="64" height="30" as="geometry" />
        </mxCell>
        <mxCell id="VALxzCZvtoURqA-u829n-40" value="" style="verticalLabelPosition=bottom;verticalAlign=top;html=1;shape=mxgraph.basic.heart" vertex="1" parent="1">
          <mxGeometry x="230" y="260" width="22.5" height="21" as="geometry" />
        </mxCell>
        <mxCell id="VALxzCZvtoURqA-u829n-42" value="Num comments" style="rounded=0;whiteSpace=wrap;html=1;fillColor=#f8cecc;strokeColor=#b85450;" vertex="1" parent="1">
          <mxGeometry x="510" y="255" width="90" height="30" as="geometry" />
        </mxCell>
        <mxCell id="VALxzCZvtoURqA-u829n-43" value="" style="html=1;verticalLabelPosition=bottom;align=center;labelBackgroundColor=#ffffff;verticalAlign=top;strokeWidth=2;strokeColor=#0080F0;shadow=0;dashed=0;shape=mxgraph.ios7.icons.message;" vertex="1" parent="1">
          <mxGeometry x="470" y="260" width="30" height="21.5" as="geometry" />
        </mxCell>
        <mxCell id="VALxzCZvtoURqA-u829n-46" value="" style="rounded=0;whiteSpace=wrap;html=1;" vertex="1" parent="1">
          <mxGeometry x="130" y="290" width="590" height="90" as="geometry" />
        </mxCell>
        <mxCell id="VALxzCZvtoURqA-u829n-47" value="Following cell" style="text;html=1;strokeColor=none;fillColor=none;align=center;verticalAlign=middle;whiteSpace=wrap;rounded=0;" vertex="1" parent="1">
          <mxGeometry x="660" y="350" width="60" height="30" as="geometry" />
        </mxCell>
        <mxCell id="VALxzCZvtoURqA-u829n-48" value="" style="shape=image;html=1;verticalAlign=top;verticalLabelPosition=bottom;labelBackgroundColor=#ffffff;imageAspect=0;aspect=fixed;image=https://cdn1.iconfinder.com/data/icons/ui-essential-17/32/UI_Essential_Outline_1_essential-app-ui-avatar-profile-user-account-128.png" vertex="1" parent="1">
          <mxGeometry x="150" y="303" width="64" height="64" as="geometry" />
        </mxCell>
        <mxCell id="VALxzCZvtoURqA-u829n-49" value="&lt;font size=&quot;1&quot; style=&quot;&quot;&gt;&lt;b style=&quot;font-size: 20px;&quot;&gt;@User2&lt;/b&gt;&lt;/font&gt;" style="text;html=1;strokeColor=none;fillColor=none;align=center;verticalAlign=middle;whiteSpace=wrap;rounded=0;" vertex="1" parent="1">
          <mxGeometry x="252.5" y="303" width="60" height="30" as="geometry" />
        </mxCell>
        <mxCell id="VALxzCZvtoURqA-u829n-50" value="Unfollow" style="rounded=1;whiteSpace=wrap;html=1;fillColor=#d0cee2;strokeColor=#56517e;" vertex="1" parent="1">
          <mxGeometry x="550" y="310" width="100" height="40" as="geometry" />
        </mxCell>
        <mxCell id="VALxzCZvtoURqA-u829n-52" value="" style="rounded=0;whiteSpace=wrap;html=1;" vertex="1" parent="1">
          <mxGeometry x="130" y="380" width="590" height="90" as="geometry" />
        </mxCell>
        <mxCell id="VALxzCZvtoURqA-u829n-53" value="Follower cell" style="text;html=1;strokeColor=none;fillColor=none;align=center;verticalAlign=middle;whiteSpace=wrap;rounded=0;" vertex="1" parent="1">
          <mxGeometry x="660" y="440" width="60" height="30" as="geometry" />
        </mxCell>
        <mxCell id="VALxzCZvtoURqA-u829n-54" value="" style="shape=image;html=1;verticalAlign=top;verticalLabelPosition=bottom;labelBackgroundColor=#ffffff;imageAspect=0;aspect=fixed;image=https://cdn1.iconfinder.com/data/icons/ui-essential-17/32/UI_Essential_Outline_1_essential-app-ui-avatar-profile-user-account-128.png" vertex="1" parent="1">
          <mxGeometry x="150" y="393" width="64" height="64" as="geometry" />
        </mxCell>
        <mxCell id="VALxzCZvtoURqA-u829n-55" value="&lt;font size=&quot;1&quot; style=&quot;&quot;&gt;&lt;b style=&quot;font-size: 20px;&quot;&gt;@User3&lt;/b&gt;&lt;/font&gt;" style="text;html=1;strokeColor=none;fillColor=none;align=center;verticalAlign=middle;whiteSpace=wrap;rounded=0;" vertex="1" parent="1">
          <mxGeometry x="252.5" y="393" width="60" height="30" as="geometry" />
        </mxCell>
        <mxCell id="VALxzCZvtoURqA-u829n-56" value="Follow" style="rounded=1;whiteSpace=wrap;html=1;fillColor=#bac8d3;strokeColor=#23445d;" vertex="1" parent="1">
          <mxGeometry x="550" y="400" width="100" height="40" as="geometry" />
        </mxCell>
        <mxCell id="VALxzCZvtoURqA-u829n-57" value="&lt;font size=&quot;1&quot; style=&quot;&quot;&gt;&lt;b style=&quot;font-size: 19px;&quot;&gt;Following&lt;/b&gt;&lt;/font&gt;" style="text;html=1;align=center;verticalAlign=middle;whiteSpace=wrap;rounded=0;perimeterSpacing=0;strokeWidth=1;strokeColor=default;" vertex="1" parent="1">
          <mxGeometry y="150" width="130" height="60" as="geometry" />
        </mxCell>
        <mxCell id="VALxzCZvtoURqA-u829n-60" value="&lt;font size=&quot;1&quot; style=&quot;&quot;&gt;&lt;b style=&quot;font-size: 19px;&quot;&gt;Following&lt;/b&gt;&lt;/font&gt;" style="text;html=1;align=center;verticalAlign=middle;whiteSpace=wrap;rounded=0;perimeterSpacing=0;strokeWidth=1;strokeColor=default;" vertex="1" parent="1">
          <mxGeometry y="210" width="130" height="60" as="geometry" />
        </mxCell>
        <mxCell id="VALxzCZvtoURqA-u829n-61" value="&lt;font size=&quot;1&quot; style=&quot;&quot;&gt;&lt;b style=&quot;font-size: 19px;&quot;&gt;Change Account&lt;/b&gt;&lt;/font&gt;" style="text;html=1;align=center;verticalAlign=middle;whiteSpace=wrap;rounded=0;perimeterSpacing=0;strokeWidth=1;strokeColor=#432D57;fillColor=#76608a;fontColor=#ffffff;" vertex="1" parent="1">
          <mxGeometry y="440" width="130" height="60" as="geometry" />
        </mxCell>
        <mxCell id="VALxzCZvtoURqA-u829n-62" value="" style="shape=image;html=1;verticalAlign=top;verticalLabelPosition=bottom;labelBackgroundColor=#ffffff;imageAspect=0;aspect=fixed;image=https://cdn0.iconfinder.com/data/icons/google-material-design-3-0/48/ic_copyright_48px-128.png" vertex="1" parent="1">
          <mxGeometry x="442" y="506" width="28" height="28" as="geometry" />
        </mxCell>
      </root>
    </mxGraphModel>
  </diagram>
</mxfile>
